solid CATIA STL
  facet normal -1.000000e+00  0.000000e+00  0.000000e+00
    outer loop
      vertex  0.000000e+00  9.270510e-01  2.085317e+01
      vertex  0.000000e+00 -9.270510e-01  2.085317e+01
      vertex  0.000000e+00 -4.043810e-15  2.500000e+01
    endloop
  endfacet
  facet normal -9.999999e-01  0.000000e+00  0.000000e+00
    outer loop
      vertex  0.000000e+00 -1.000000e+01  2.000000e+00
      vertex  0.000000e+00 -1.000000e+01  1.500000e+01
      vertex  0.000000e+00 -9.270510e-01  1.514683e+01
    endloop
  endfacet
  facet normal -1.000000e+00  0.000000e+00  -0.000000e+00
    outer loop
      vertex  0.000000e+00 -1.000000e+01  2.000000e+00
      vertex  0.000000e+00 -9.270510e-01  1.514683e+01
      vertex  0.000000e+00  9.270510e-01  1.514683e+01
    endloop
  endfacet
  facet normal -1.000000e+00  0.000000e+00  -0.000000e+00
    outer loop
      vertex  0.000000e+00 -1.000000e+01  2.000000e+00
      vertex  0.000000e+00  9.270510e-01  1.514683e+01
      vertex  0.000000e+00  1.000000e+01  1.500000e+01
    endloop
  endfacet
  facet normal -1.000000e+00 -1.110223e-17  1.708035e-17
    outer loop
      vertex  0.000000e+00 -1.000000e+01  2.000000e+00
      vertex  0.000000e+00  1.000000e+01  1.500000e+01
      vertex -2.220446e-16  1.000000e+01  2.000000e+00
    endloop
  endfacet
  facet normal -1.000000e+00 -1.110223e-17  5.551115e-17
    outer loop
      vertex  0.000000e+00 -1.000000e+01  2.000000e+00
      vertex -2.220446e-16  1.000000e+01  2.000000e+00
      vertex  0.000000e+00 -2.000000e+01  0.000000e+00
    endloop
  endfacet
  facet normal -1.000000e+00  2.220446e-17 -1.110223e-16
    outer loop
      vertex  0.000000e+00 -1.000000e+01  2.000000e+00
      vertex  0.000000e+00 -2.000000e+01  0.000000e+00
      vertex -2.220446e-16 -2.000000e+01  2.000000e+00
    endloop
  endfacet
  facet normal -1.000000e+00  0.000000e+00  -0.000000e+00
    outer loop
      vertex  0.000000e+00 -1.000000e+01  1.500000e+01
      vertex  0.000000e+00 -9.238795e+00  1.882683e+01
      vertex  0.000000e+00 -3.000000e+00  1.800000e+01
    endloop
  endfacet
  facet normal -9.999999e-01  0.000000e+00  -0.000000e+00
    outer loop
      vertex  0.000000e+00 -1.000000e+01  1.500000e+01
      vertex  0.000000e+00 -3.000000e+00  1.800000e+01
      vertex  0.000000e+00 -2.427051e+00  1.623664e+01
    endloop
  endfacet
  facet normal -1.000000e+00  0.000000e+00  -0.000000e+00
    outer loop
      vertex  0.000000e+00 -1.000000e+01  1.500000e+01
      vertex  0.000000e+00 -2.427051e+00  1.623664e+01
      vertex  0.000000e+00 -9.270510e-01  1.514683e+01
    endloop
  endfacet
  facet normal -1.000000e+00  -0.000000e+00 -1.110223e-16
    outer loop
      vertex -2.220446e-16  1.000000e+01  2.000000e+00
      vertex -2.220446e-16  2.000000e+01  2.000000e+00
      vertex  0.000000e+00 -2.000000e+01  0.000000e+00
    endloop
  endfacet
  facet normal -1.000000e+00  0.000000e+00 -1.110223e-16
    outer loop
      vertex  0.000000e+00 -2.000000e+01  0.000000e+00
      vertex -2.220446e-16  2.000000e+01  2.000000e+00
      vertex  0.000000e+00  2.000000e+01  0.000000e+00
    endloop
  endfacet
  facet normal -1.000000e+00  0.000000e+00  0.000000e+00
    outer loop
      vertex  0.000000e+00 -3.000000e+00  1.800000e+01
      vertex  0.000000e+00 -9.238795e+00  1.882683e+01
      vertex  0.000000e+00 -2.427051e+00  1.976336e+01
    endloop
  endfacet
  facet normal -1.000000e+00  -0.000000e+00  0.000000e+00
    outer loop
      vertex  0.000000e+00 -2.427051e+00  1.976336e+01
      vertex  0.000000e+00 -9.238795e+00  1.882683e+01
      vertex  0.000000e+00 -7.071068e+00  2.207107e+01
    endloop
  endfacet
  facet normal -1.000000e+00  0.000000e+00  0.000000e+00
    outer loop
      vertex  0.000000e+00 -2.427051e+00  1.976336e+01
      vertex  0.000000e+00 -7.071068e+00  2.207107e+01
      vertex  0.000000e+00 -9.270510e-01  2.085317e+01
    endloop
  endfacet
  facet normal -1.000000e+00  0.000000e+00  0.000000e+00
    outer loop
      vertex  0.000000e+00 -9.270510e-01  2.085317e+01
      vertex  0.000000e+00 -7.071068e+00  2.207107e+01
      vertex  0.000000e+00 -3.826834e+00  2.423880e+01
    endloop
  endfacet
  facet normal -9.999999e-01  0.000000e+00  0.000000e+00
    outer loop
      vertex  0.000000e+00 -9.270510e-01  2.085317e+01
      vertex  0.000000e+00 -3.826834e+00  2.423880e+01
      vertex  0.000000e+00 -4.043810e-15  2.500000e+01
    endloop
  endfacet
  facet normal -1.000000e+00  0.000000e+00  0.000000e+00
    outer loop
      vertex  0.000000e+00  3.000000e+00  1.800000e+01
      vertex  0.000000e+00  2.427051e+00  1.976336e+01
      vertex  0.000000e+00  9.238795e+00  1.882683e+01
    endloop
  endfacet
  facet normal -1.000000e+00  0.000000e+00  0.000000e+00
    outer loop
      vertex  0.000000e+00  9.238795e+00  1.882683e+01
      vertex  0.000000e+00  2.427051e+00  1.976336e+01
      vertex  0.000000e+00  9.270510e-01  2.085317e+01
    endloop
  endfacet
  facet normal -1.000000e+00  0.000000e+00  0.000000e+00
    outer loop
      vertex  0.000000e+00  9.238795e+00  1.882683e+01
      vertex  0.000000e+00  9.270510e-01  2.085317e+01
      vertex  0.000000e+00  7.071068e+00  2.207107e+01
    endloop
  endfacet
  facet normal -1.000000e+00  -0.000000e+00  0.000000e+00
    outer loop
      vertex  0.000000e+00  7.071068e+00  2.207107e+01
      vertex  0.000000e+00  9.270510e-01  2.085317e+01
      vertex  0.000000e+00 -4.043810e-15  2.500000e+01
    endloop
  endfacet
  facet normal -1.000000e+00  0.000000e+00  0.000000e+00
    outer loop
      vertex  0.000000e+00  7.071068e+00  2.207107e+01
      vertex  0.000000e+00 -4.043810e-15  2.500000e+01
      vertex  0.000000e+00  3.826834e+00  2.423880e+01
    endloop
  endfacet
  facet normal -1.000000e+00  0.000000e+00  -0.000000e+00
    outer loop
      vertex  0.000000e+00  9.270510e-01  1.514683e+01
      vertex  0.000000e+00  2.427051e+00  1.623664e+01
      vertex  0.000000e+00  1.000000e+01  1.500000e+01
    endloop
  endfacet
  facet normal -9.999999e-01  0.000000e+00  0.000000e+00
    outer loop
      vertex  0.000000e+00  1.000000e+01  1.500000e+01
      vertex  0.000000e+00  2.427051e+00  1.623664e+01
      vertex  0.000000e+00  3.000000e+00  1.800000e+01
    endloop
  endfacet
  facet normal -1.000000e+00  0.000000e+00  0.000000e+00
    outer loop
      vertex  0.000000e+00  1.000000e+01  1.500000e+01
      vertex  0.000000e+00  3.000000e+00  1.800000e+01
      vertex  0.000000e+00  9.238795e+00  1.882683e+01
    endloop
  endfacet
  facet normal  1.000000e+00  0.000000e+00  0.000000e+00
    outer loop
      vertex  1.000000e+01 -4.043810e-15  2.500000e+01
      vertex  1.000000e+01 -9.270510e-01  2.085317e+01
      vertex  1.000000e+01  9.270510e-01  2.085317e+01
    endloop
  endfacet
  facet normal  1.000000e+00  -0.000000e+00  0.000000e+00
    outer loop
      vertex  1.000000e+01 -1.000000e+01  2.000000e+00
      vertex  1.000000e+01 -2.000000e+01  2.000000e+00
      vertex  1.000000e+01 -2.000000e+01  0.000000e+00
    endloop
  endfacet
  facet normal  1.000000e+00  0.000000e+00  0.000000e+00
    outer loop
      vertex  1.000000e+01 -1.000000e+01  2.000000e+00
      vertex  1.000000e+01 -2.000000e+01  0.000000e+00
      vertex  1.000000e+01  1.000000e+01  2.000000e+00
    endloop
  endfacet
  facet normal  1.000000e+00  0.000000e+00  -0.000000e+00
    outer loop
      vertex  1.000000e+01 -1.000000e+01  2.000000e+00
      vertex  1.000000e+01  1.000000e+01  2.000000e+00
      vertex  1.000000e+01  1.000000e+01  1.500000e+01
    endloop
  endfacet
  facet normal  1.000000e+00  0.000000e+00  0.000000e+00
    outer loop
      vertex  1.000000e+01 -1.000000e+01  2.000000e+00
      vertex  1.000000e+01  1.000000e+01  1.500000e+01
      vertex  1.000000e+01  9.270510e-01  1.514683e+01
    endloop
  endfacet
  facet normal  1.000000e+00  0.000000e+00  0.000000e+00
    outer loop
      vertex  1.000000e+01 -1.000000e+01  2.000000e+00
      vertex  1.000000e+01  9.270510e-01  1.514683e+01
      vertex  1.000000e+01 -9.270510e-01  1.514683e+01
    endloop
  endfacet
  facet normal  9.999999e-01  0.000000e+00  0.000000e+00
    outer loop
      vertex  1.000000e+01 -1.000000e+01  2.000000e+00
      vertex  1.000000e+01 -9.270510e-01  1.514683e+01
      vertex  1.000000e+01 -1.000000e+01  1.500000e+01
    endloop
  endfacet
  facet normal  1.000000e+00  0.000000e+00  0.000000e+00
    outer loop
      vertex  1.000000e+01 -1.000000e+01  1.500000e+01
      vertex  1.000000e+01 -9.270510e-01  1.514683e+01
      vertex  1.000000e+01 -2.427051e+00  1.623664e+01
    endloop
  endfacet
  facet normal  1.000000e+00  0.000000e+00  0.000000e+00
    outer loop
      vertex  1.000000e+01 -1.000000e+01  1.500000e+01
      vertex  1.000000e+01 -2.427051e+00  1.623664e+01
      vertex  1.000000e+01 -3.000000e+00  1.800000e+01
    endloop
  endfacet
  facet normal  1.000000e+00  0.000000e+00  0.000000e+00
    outer loop
      vertex  1.000000e+01 -1.000000e+01  1.500000e+01
      vertex  1.000000e+01 -3.000000e+00  1.800000e+01
      vertex  1.000000e+01 -9.238795e+00  1.882683e+01
    endloop
  endfacet
  facet normal  1.000000e+00  0.000000e+00  0.000000e+00
    outer loop
      vertex  1.000000e+01  1.000000e+01  2.000000e+00
      vertex  1.000000e+01 -2.000000e+01  0.000000e+00
      vertex  1.000000e+01  2.000000e+01  2.000000e+00
    endloop
  endfacet
  facet normal  1.000000e+00  0.000000e+00  0.000000e+00
    outer loop
      vertex  1.000000e+01  2.000000e+01  2.000000e+00
      vertex  1.000000e+01 -2.000000e+01  0.000000e+00
      vertex  1.000000e+01  2.000000e+01  0.000000e+00
    endloop
  endfacet
  facet normal  9.999999e-01  -0.000000e+00  0.000000e+00
    outer loop
      vertex  1.000000e+01 -4.043810e-15  2.500000e+01
      vertex  1.000000e+01 -3.826834e+00  2.423880e+01
      vertex  1.000000e+01 -9.270510e-01  2.085317e+01
    endloop
  endfacet
  facet normal  1.000000e+00  0.000000e+00  0.000000e+00
    outer loop
      vertex  1.000000e+01 -9.270510e-01  2.085317e+01
      vertex  1.000000e+01 -3.826834e+00  2.423880e+01
      vertex  1.000000e+01 -7.071068e+00  2.207107e+01
    endloop
  endfacet
  facet normal  1.000000e+00  0.000000e+00  0.000000e+00
    outer loop
      vertex  1.000000e+01 -9.270510e-01  2.085317e+01
      vertex  1.000000e+01 -7.071068e+00  2.207107e+01
      vertex  1.000000e+01 -2.427051e+00  1.976336e+01
    endloop
  endfacet
  facet normal  1.000000e+00  0.000000e+00  0.000000e+00
    outer loop
      vertex  1.000000e+01 -2.427051e+00  1.976336e+01
      vertex  1.000000e+01 -7.071068e+00  2.207107e+01
      vertex  1.000000e+01 -9.238795e+00  1.882683e+01
    endloop
  endfacet
  facet normal  1.000000e+00  -0.000000e+00  0.000000e+00
    outer loop
      vertex  1.000000e+01 -2.427051e+00  1.976336e+01
      vertex  1.000000e+01 -9.238795e+00  1.882683e+01
      vertex  1.000000e+01 -3.000000e+00  1.800000e+01
    endloop
  endfacet
  facet normal  1.000000e+00  0.000000e+00  0.000000e+00
    outer loop
      vertex  1.000000e+01  3.826834e+00  2.423880e+01
      vertex  1.000000e+01 -4.043810e-15  2.500000e+01
      vertex  1.000000e+01  7.071068e+00  2.207107e+01
    endloop
  endfacet
  facet normal  1.000000e+00  0.000000e+00  0.000000e+00
    outer loop
      vertex  1.000000e+01  7.071068e+00  2.207107e+01
      vertex  1.000000e+01 -4.043810e-15  2.500000e+01
      vertex  1.000000e+01  9.270510e-01  2.085317e+01
    endloop
  endfacet
  facet normal  1.000000e+00  -0.000000e+00  0.000000e+00
    outer loop
      vertex  1.000000e+01  7.071068e+00  2.207107e+01
      vertex  1.000000e+01  9.270510e-01  2.085317e+01
      vertex  1.000000e+01  9.238795e+00  1.882683e+01
    endloop
  endfacet
  facet normal  1.000000e+00  0.000000e+00  0.000000e+00
    outer loop
      vertex  1.000000e+01  9.238795e+00  1.882683e+01
      vertex  1.000000e+01  9.270510e-01  2.085317e+01
      vertex  1.000000e+01  2.427051e+00  1.976336e+01
    endloop
  endfacet
  facet normal  1.000000e+00  0.000000e+00  0.000000e+00
    outer loop
      vertex  1.000000e+01  9.238795e+00  1.882683e+01
      vertex  1.000000e+01  2.427051e+00  1.976336e+01
      vertex  1.000000e+01  3.000000e+00  1.800000e+01
    endloop
  endfacet
  facet normal  1.000000e+00  -0.000000e+00  0.000000e+00
    outer loop
      vertex  1.000000e+01  9.238795e+00  1.882683e+01
      vertex  1.000000e+01  3.000000e+00  1.800000e+01
      vertex  1.000000e+01  1.000000e+01  1.500000e+01
    endloop
  endfacet
  facet normal  9.999999e-01  0.000000e+00  0.000000e+00
    outer loop
      vertex  1.000000e+01  1.000000e+01  1.500000e+01
      vertex  1.000000e+01  3.000000e+00  1.800000e+01
      vertex  1.000000e+01  2.427051e+00  1.623664e+01
    endloop
  endfacet
  facet normal  1.000000e+00  0.000000e+00  0.000000e+00
    outer loop
      vertex  1.000000e+01  1.000000e+01  1.500000e+01
      vertex  1.000000e+01  2.427051e+00  1.623664e+01
      vertex  1.000000e+01  9.270510e-01  1.514683e+01
    endloop
  endfacet
  facet normal  0.000000e+00  0.000000e+00  9.999999e-01
    outer loop
      vertex  1.000000e+00  1.000000e+01  3.000000e+00
      vertex  9.000000e+00  1.000000e+01  3.000000e+00
      vertex  6.414214e+00  1.358579e+01  3.000000e+00
    endloop
  endfacet
  facet normal  0.000000e+00  0.000000e+00  9.999999e-01
    outer loop
      vertex  1.000000e+00  1.000000e+01  3.000000e+00
      vertex  6.414214e+00  1.358579e+01  3.000000e+00
      vertex  5.000000e+00  1.300000e+01  3.000000e+00
    endloop
  endfacet
  facet normal  0.000000e+00  0.000000e+00  1.000000e+00
    outer loop
      vertex  1.000000e+00  1.000000e+01  3.000000e+00
      vertex  5.000000e+00  1.300000e+01  3.000000e+00
      vertex  3.585786e+00  1.358579e+01  3.000000e+00
    endloop
  endfacet
  facet normal  0.000000e+00  0.000000e+00  1.000000e+00
    outer loop
      vertex  1.000000e+00  1.000000e+01  3.000000e+00
      vertex  3.585786e+00  1.358579e+01  3.000000e+00
      vertex  1.000000e+00  1.900000e+01  3.000000e+00
    endloop
  endfacet
  facet normal  0.000000e+00  0.000000e+00  1.000000e+00
    outer loop
      vertex  1.000000e+00  1.900000e+01  3.000000e+00
      vertex  3.585786e+00  1.358579e+01  3.000000e+00
      vertex  3.000000e+00  1.500000e+01  3.000000e+00
    endloop
  endfacet
  facet normal  0.000000e+00  -0.000000e+00  1.000000e+00
    outer loop
      vertex  1.000000e+00  1.900000e+01  3.000000e+00
      vertex  3.000000e+00  1.500000e+01  3.000000e+00
      vertex  3.585786e+00  1.641421e+01  3.000000e+00
    endloop
  endfacet
  facet normal  0.000000e+00  -0.000000e+00  1.000000e+00
    outer loop
      vertex  1.000000e+00  1.900000e+01  3.000000e+00
      vertex  3.585786e+00  1.641421e+01  3.000000e+00
      vertex  5.000000e+00  1.700000e+01  3.000000e+00
    endloop
  endfacet
  facet normal  0.000000e+00  -0.000000e+00  1.000000e+00
    outer loop
      vertex  1.000000e+00  1.900000e+01  3.000000e+00
      vertex  5.000000e+00  1.700000e+01  3.000000e+00
      vertex  9.000000e+00  1.900000e+01  3.000000e+00
    endloop
  endfacet
  facet normal  -0.000000e+00  0.000000e+00  1.000000e+00
    outer loop
      vertex  9.000000e+00  1.900000e+01  3.000000e+00
      vertex  5.000000e+00  1.700000e+01  3.000000e+00
      vertex  6.414214e+00  1.641421e+01  3.000000e+00
    endloop
  endfacet
  facet normal  -0.000000e+00  0.000000e+00  1.000000e+00
    outer loop
      vertex  9.000000e+00  1.900000e+01  3.000000e+00
      vertex  6.414214e+00  1.641421e+01  3.000000e+00
      vertex  7.000000e+00  1.500000e+01  3.000000e+00
    endloop
  endfacet
  facet normal  -0.000000e+00  0.000000e+00  1.000000e+00
    outer loop
      vertex  9.000000e+00  1.900000e+01  3.000000e+00
      vertex  7.000000e+00  1.500000e+01  3.000000e+00
      vertex  6.414214e+00  1.358579e+01  3.000000e+00
    endloop
  endfacet
  facet normal  -0.000000e+00  0.000000e+00  1.000000e+00
    outer loop
      vertex  9.000000e+00  1.900000e+01  3.000000e+00
      vertex  6.414214e+00  1.358579e+01  3.000000e+00
      vertex  9.000000e+00  1.000000e+01  3.000000e+00
    endloop
  endfacet
  facet normal  0.000000e+00  1.000000e+00  0.000000e+00
    outer loop
      vertex  0.000000e+00  2.000000e+01  0.000000e+00
      vertex -2.220446e-16  2.000000e+01  2.000000e+00
      vertex  1.000000e+01  2.000000e+01  0.000000e+00
    endloop
  endfacet
  facet normal  0.000000e+00  1.000000e+00  -0.000000e+00
    outer loop
      vertex  1.000000e+01  2.000000e+01  0.000000e+00
      vertex -2.220446e-16  2.000000e+01  2.000000e+00
      vertex  1.000000e+01  2.000000e+01  2.000000e+00
    endloop
  endfacet
  facet normal  0.000000e+00  1.000000e+00  -0.000000e+00
    outer loop
      vertex  1.000000e+01  1.000000e+01  1.500000e+01
      vertex  1.000000e+01  1.000000e+01  2.000000e+00
      vertex  9.707107e+00  1.000000e+01  2.707107e+00
    endloop
  endfacet
  facet normal  0.000000e+00  1.000000e+00  -0.000000e+00
    outer loop
      vertex  1.000000e+01  1.000000e+01  1.500000e+01
      vertex  9.707107e+00  1.000000e+01  2.707107e+00
      vertex  9.000000e+00  1.000000e+01  3.000000e+00
    endloop
  endfacet
  facet normal  0.000000e+00  1.000000e+00  -0.000000e+00
    outer loop
      vertex  1.000000e+01  1.000000e+01  1.500000e+01
      vertex  9.000000e+00  1.000000e+01  3.000000e+00
      vertex  0.000000e+00  1.000000e+01  1.500000e+01
    endloop
  endfacet
  facet normal  0.000000e+00  1.000000e+00  0.000000e+00
    outer loop
      vertex  0.000000e+00  1.000000e+01  1.500000e+01
      vertex  9.000000e+00  1.000000e+01  3.000000e+00
      vertex  1.000000e+00  1.000000e+01  3.000000e+00
    endloop
  endfacet
  facet normal  0.000000e+00  1.000000e+00  0.000000e+00
    outer loop
      vertex  0.000000e+00  1.000000e+01  1.500000e+01
      vertex  1.000000e+00  1.000000e+01  3.000000e+00
      vertex  2.928932e-01  1.000000e+01  2.707107e+00
    endloop
  endfacet
  facet normal  0.000000e+00  1.000000e+00  0.000000e+00
    outer loop
      vertex  0.000000e+00  1.000000e+01  1.500000e+01
      vertex  2.928932e-01  1.000000e+01  2.707107e+00
      vertex -2.220446e-16  1.000000e+01  2.000000e+00
    endloop
  endfacet
  facet normal  3.036521e-01  -0.000000e+00  9.527830e-01
    outer loop
      vertex  9.000000e+00  1.900000e+01  3.000000e+00
      vertex  9.000000e+00  1.000000e+01  3.000000e+00
      vertex  9.578637e+00  1.957863e+01  2.815588e+00
    endloop
  endfacet
  facet normal  3.826780e-01 -5.330603e-03  9.238664e-01
    outer loop
      vertex  9.578637e+00  1.957863e+01  2.815588e+00
      vertex  9.000000e+00  1.000000e+01  3.000000e+00
      vertex  9.707107e+00  1.000000e+01  2.707107e+00
    endloop
  endfacet
  facet normal  7.091260e-01  1.525578e-03  7.050802e-01
    outer loop
      vertex  9.578637e+00  1.957863e+01  2.815588e+00
      vertex  9.707107e+00  1.000000e+01  2.707107e+00
      vertex  9.820108e+00  1.982011e+01  2.572209e+00
    endloop
  endfacet
  facet normal  9.342980e-01 -5.854692e-03  3.564449e-01
    outer loop
      vertex  9.820108e+00  1.982011e+01  2.572209e+00
      vertex  9.707107e+00  1.000000e+01  2.707107e+00
      vertex  9.992330e+00  1.999233e+01  2.123619e+00
    endloop
  endfacet
  facet normal  9.238720e-01 -4.025092e-03  3.826805e-01
    outer loop
      vertex  9.992330e+00  1.999233e+01  2.123619e+00
      vertex  9.707107e+00  1.000000e+01  2.707107e+00
      vertex  1.000000e+01  1.000000e+01  2.000000e+00
    endloop
  endfacet
  facet normal  9.980806e-01  -0.000000e+00  6.192971e-02
    outer loop
      vertex  9.992330e+00  1.999233e+01  2.123619e+00
      vertex  1.000000e+01  1.000000e+01  2.000000e+00
      vertex  1.000000e+01  2.000000e+01  2.000000e+00
    endloop
  endfacet
  facet normal  0.000000e+00  3.036526e-01  9.527828e-01
    outer loop
      vertex  1.000000e+00  1.900000e+01  3.000000e+00
      vertex  9.000000e+00  1.900000e+01  3.000000e+00
      vertex  4.213671e-01  1.957864e+01  2.815588e+00
    endloop
  endfacet
  facet normal  1.264950e-07  3.036543e-01  9.527823e-01
    outer loop
      vertex  4.213671e-01  1.957864e+01  2.815588e+00
      vertex  9.000000e+00  1.900000e+01  3.000000e+00
      vertex  9.578637e+00  1.957863e+01  2.815588e+00
    endloop
  endfacet
  facet normal  2.957200e-07  7.098827e-01  7.043198e-01
    outer loop
      vertex  4.213671e-01  1.957864e+01  2.815588e+00
      vertex  9.578637e+00  1.957863e+01  2.815588e+00
      vertex  1.798921e-01  1.982011e+01  2.572209e+00
    endloop
  endfacet
  facet normal  -0.000000e+00  7.098771e-01  7.043257e-01
    outer loop
      vertex  1.798921e-01  1.982011e+01  2.572209e+00
      vertex  9.578637e+00  1.957863e+01  2.815588e+00
      vertex  9.820108e+00  1.982011e+01  2.572209e+00
    endloop
  endfacet
  facet normal  0.000000e+00  9.335634e-01  3.584125e-01
    outer loop
      vertex  1.798921e-01  1.982011e+01  2.572209e+00
      vertex  9.820108e+00  1.982011e+01  2.572209e+00
      vertex  7.670221e-03  1.999233e+01  2.123619e+00
    endloop
  endfacet
  facet normal  -0.000000e+00  9.335634e-01  3.584125e-01
    outer loop
      vertex  7.670221e-03  1.999233e+01  2.123619e+00
      vertex  9.820108e+00  1.982011e+01  2.572209e+00
      vertex  9.992330e+00  1.999233e+01  2.123619e+00
    endloop
  endfacet
  facet normal  0.000000e+00  9.980809e-01  6.192204e-02
    outer loop
      vertex  7.670221e-03  1.999233e+01  2.123619e+00
      vertex  9.992330e+00  1.999233e+01  2.123619e+00
      vertex -2.220446e-16  2.000000e+01  2.000000e+00
    endloop
  endfacet
  facet normal  -0.000000e+00  9.980810e-01  6.192205e-02
    outer loop
      vertex -2.220446e-16  2.000000e+01  2.000000e+00
      vertex  9.992330e+00  1.999233e+01  2.123619e+00
      vertex  1.000000e+01  2.000000e+01  2.000000e+00
    endloop
  endfacet
  facet normal -3.826834e-01  0.000000e+00  9.238795e-01
    outer loop
      vertex  2.928932e-01  1.000000e+01  2.707107e+00
      vertex  1.000000e+00  1.000000e+01  3.000000e+00
      vertex  1.000000e+00  1.900000e+01  3.000000e+00
    endloop
  endfacet
  facet normal -3.096468e-01 -6.615313e-03  9.508286e-01
    outer loop
      vertex  2.928932e-01  1.000000e+01  2.707107e+00
      vertex  1.000000e+00  1.900000e+01  3.000000e+00
      vertex  4.213671e-01  1.957864e+01  2.815588e+00
    endloop
  endfacet
  facet normal -7.091204e-01  1.525767e-03  7.050858e-01
    outer loop
      vertex  2.928932e-01  1.000000e+01  2.707107e+00
      vertex  4.213671e-01  1.957864e+01  2.815588e+00
      vertex  1.798921e-01  1.982011e+01  2.572209e+00
    endloop
  endfacet
  facet normal -9.342976e-01 -5.854607e-03  3.564461e-01
    outer loop
      vertex  2.928932e-01  1.000000e+01  2.707107e+00
      vertex  1.798921e-01  1.982011e+01  2.572209e+00
      vertex  7.670221e-03  1.999233e+01  2.123619e+00
    endloop
  endfacet
  facet normal -9.978642e-01 -2.495822e-02  6.036639e-02
    outer loop
      vertex  2.928932e-01  1.000000e+01  2.707107e+00
      vertex  7.670221e-03  1.999233e+01  2.123619e+00
      vertex -2.220446e-16  2.000000e+01  2.000000e+00
    endloop
  endfacet
  facet normal -9.238795e-01  0.000000e+00  3.826834e-01
    outer loop
      vertex  2.928932e-01  1.000000e+01  2.707107e+00
      vertex -2.220446e-16  2.000000e+01  2.000000e+00
      vertex -2.220446e-16  1.000000e+01  2.000000e+00
    endloop
  endfacet
  facet normal  -0.000000e+00  0.000000e+00  1.000000e+00
    outer loop
      vertex  9.000000e+00 -1.000000e+01  3.000000e+00
      vertex  6.414214e+00 -1.358579e+01  3.000000e+00
      vertex  7.000000e+00 -1.500000e+01  3.000000e+00
    endloop
  endfacet
  facet normal  -0.000000e+00  0.000000e+00  1.000000e+00
    outer loop
      vertex  9.000000e+00 -1.000000e+01  3.000000e+00
      vertex  5.000000e+00 -1.300000e+01  3.000000e+00
      vertex  6.414214e+00 -1.358579e+01  3.000000e+00
    endloop
  endfacet
  facet normal  0.000000e+00  0.000000e+00  1.000000e+00
    outer loop
      vertex  9.000000e+00 -1.900000e+01  3.000000e+00
      vertex  9.000000e+00 -1.000000e+01  3.000000e+00
      vertex  7.000000e+00 -1.500000e+01  3.000000e+00
    endloop
  endfacet
  facet normal  0.000000e+00  0.000000e+00  1.000000e+00
    outer loop
      vertex  9.000000e+00 -1.900000e+01  3.000000e+00
      vertex  7.000000e+00 -1.500000e+01  3.000000e+00
      vertex  6.414214e+00 -1.641421e+01  3.000000e+00
    endloop
  endfacet
  facet normal  0.000000e+00  0.000000e+00  1.000000e+00
    outer loop
      vertex  9.000000e+00 -1.900000e+01  3.000000e+00
      vertex  6.414214e+00 -1.641421e+01  3.000000e+00
      vertex  5.000000e+00 -1.700000e+01  3.000000e+00
    endloop
  endfacet
  facet normal  0.000000e+00  0.000000e+00  1.000000e+00
    outer loop
      vertex  9.000000e+00 -1.900000e+01  3.000000e+00
      vertex  5.000000e+00 -1.700000e+01  3.000000e+00
      vertex  1.000000e+00 -1.900000e+01  3.000000e+00
    endloop
  endfacet
  facet normal  0.000000e+00  -0.000000e+00  1.000000e+00
    outer loop
      vertex  1.000000e+00 -1.000000e+01  3.000000e+00
      vertex  3.000000e+00 -1.500000e+01  3.000000e+00
      vertex  3.585786e+00 -1.358579e+01  3.000000e+00
    endloop
  endfacet
  facet normal  0.000000e+00  -0.000000e+00  1.000000e+00
    outer loop
      vertex  1.000000e+00 -1.000000e+01  3.000000e+00
      vertex  3.585786e+00 -1.358579e+01  3.000000e+00
      vertex  5.000000e+00 -1.300000e+01  3.000000e+00
    endloop
  endfacet
  facet normal  0.000000e+00  -0.000000e+00  1.000000e+00
    outer loop
      vertex  1.000000e+00 -1.000000e+01  3.000000e+00
      vertex  5.000000e+00 -1.300000e+01  3.000000e+00
      vertex  9.000000e+00 -1.000000e+01  3.000000e+00
    endloop
  endfacet
  facet normal  0.000000e+00  0.000000e+00  1.000000e+00
    outer loop
      vertex  1.000000e+00 -1.900000e+01  3.000000e+00
      vertex  5.000000e+00 -1.700000e+01  3.000000e+00
      vertex  3.585786e+00 -1.641421e+01  3.000000e+00
    endloop
  endfacet
  facet normal  0.000000e+00  0.000000e+00  1.000000e+00
    outer loop
      vertex  1.000000e+00 -1.900000e+01  3.000000e+00
      vertex  3.585786e+00 -1.641421e+01  3.000000e+00
      vertex  3.000000e+00 -1.500000e+01  3.000000e+00
    endloop
  endfacet
  facet normal  0.000000e+00  0.000000e+00  1.000000e+00
    outer loop
      vertex  1.000000e+00 -1.900000e+01  3.000000e+00
      vertex  3.000000e+00 -1.500000e+01  3.000000e+00
      vertex  1.000000e+00 -1.000000e+01  3.000000e+00
    endloop
  endfacet
  facet normal  0.000000e+00 -1.000000e+00  0.000000e+00
    outer loop
      vertex -2.220446e-16 -2.000000e+01  2.000000e+00
      vertex  0.000000e+00 -2.000000e+01  0.000000e+00
      vertex  1.000000e+01 -2.000000e+01  2.000000e+00
    endloop
  endfacet
  facet normal  0.000000e+00 -1.000000e+00  -0.000000e+00
    outer loop
      vertex  1.000000e+01 -2.000000e+01  2.000000e+00
      vertex  0.000000e+00 -2.000000e+01  0.000000e+00
      vertex  1.000000e+01 -2.000000e+01  0.000000e+00
    endloop
  endfacet
  facet normal  0.000000e+00 -1.000000e+00  0.000000e+00
    outer loop
      vertex  1.000000e+01 -1.000000e+01  1.500000e+01
      vertex  9.707107e+00 -1.000000e+01  2.707107e+00
      vertex  1.000000e+01 -1.000000e+01  2.000000e+00
    endloop
  endfacet
  facet normal  0.000000e+00 -1.000000e+00  0.000000e+00
    outer loop
      vertex  1.000000e+01 -1.000000e+01  1.500000e+01
      vertex  9.000000e+00 -1.000000e+01  3.000000e+00
      vertex  9.707107e+00 -1.000000e+01  2.707107e+00
    endloop
  endfacet
  facet normal  0.000000e+00 -1.000000e+00  0.000000e+00
    outer loop
      vertex  0.000000e+00 -1.000000e+01  1.500000e+01
      vertex  0.000000e+00 -1.000000e+01  2.000000e+00
      vertex  2.928932e-01 -1.000000e+01  2.707107e+00
    endloop
  endfacet
  facet normal  0.000000e+00 -1.000000e+00  0.000000e+00
    outer loop
      vertex  0.000000e+00 -1.000000e+01  1.500000e+01
      vertex  2.928932e-01 -1.000000e+01  2.707107e+00
      vertex  1.000000e+00 -1.000000e+01  3.000000e+00
    endloop
  endfacet
  facet normal  0.000000e+00 -1.000000e+00  0.000000e+00
    outer loop
      vertex  0.000000e+00 -1.000000e+01  1.500000e+01
      vertex  1.000000e+00 -1.000000e+01  3.000000e+00
      vertex  9.000000e+00 -1.000000e+01  3.000000e+00
    endloop
  endfacet
  facet normal  0.000000e+00 -1.000000e+00  0.000000e+00
    outer loop
      vertex  0.000000e+00 -1.000000e+01  1.500000e+01
      vertex  9.000000e+00 -1.000000e+01  3.000000e+00
      vertex  1.000000e+01 -1.000000e+01  1.500000e+01
    endloop
  endfacet
  facet normal  3.826835e-01  -0.000000e+00  9.238795e-01
    outer loop
      vertex  9.000000e+00 -1.000000e+01  3.000000e+00
      vertex  9.000000e+00 -1.900000e+01  3.000000e+00
      vertex  9.707107e+00 -1.000000e+01  2.707107e+00
    endloop
  endfacet
  facet normal  2.481137e-01  1.203000e-02  9.686562e-01
    outer loop
      vertex  9.707107e+00 -1.000000e+01  2.707107e+00
      vertex  9.000000e+00 -1.900000e+01  3.000000e+00
      vertex  9.460115e+00 -1.946012e+01  2.887859e+00
    endloop
  endfacet
  facet normal  6.321054e-01 -1.697956e-03  7.748805e-01
    outer loop
      vertex  9.707107e+00 -1.000000e+01  2.707107e+00
      vertex  9.460115e+00 -1.946012e+01  2.887859e+00
      vertex  9.778980e+00 -1.977898e+01  2.627048e+00
    endloop
  endfacet
  facet normal  9.238733e-01  3.657351e-03  3.826810e-01
    outer loop
      vertex  9.707107e+00 -1.000000e+01  2.707107e+00
      vertex  9.778980e+00 -1.977898e+01  2.627048e+00
      vertex  1.000000e+01 -1.000000e+01  2.000000e+00
    endloop
  endfacet
  facet normal  8.500135e-01  1.455249e-02  5.265598e-01
    outer loop
      vertex  1.000000e+01 -1.000000e+01  2.000000e+00
      vertex  9.778980e+00 -1.977898e+01  2.627048e+00
      vertex  9.901752e+00 -1.990175e+01  2.432253e+00
    endloop
  endfacet
  facet normal  9.751289e-01  0.000000e+00  2.216389e-01
    outer loop
      vertex  1.000000e+01 -1.000000e+01  2.000000e+00
      vertex  9.901752e+00 -1.990175e+01  2.432253e+00
      vertex  1.000000e+01 -2.000000e+01  2.000000e+00
    endloop
  endfacet
  facet normal  0.000000e+00 -9.751289e-01  2.216389e-01
    outer loop
      vertex -2.220446e-16 -2.000000e+01  2.000000e+00
      vertex  1.000000e+01 -2.000000e+01  2.000000e+00
      vertex  9.824746e-02 -1.990175e+01  2.432253e+00
    endloop
  endfacet
  facet normal  0.000000e+00 -9.751288e-01  2.216389e-01
    outer loop
      vertex  9.824746e-02 -1.990175e+01  2.432253e+00
      vertex  1.000000e+01 -2.000000e+01  2.000000e+00
      vertex  9.901752e+00 -1.990175e+01  2.432253e+00
    endloop
  endfacet
  facet normal  0.000000e+00 -8.459914e-01  5.331966e-01
    outer loop
      vertex  9.824746e-02 -1.990175e+01  2.432253e+00
      vertex  9.901752e+00 -1.990175e+01  2.432253e+00
      vertex  2.210194e-01 -1.977898e+01  2.627048e+00
    endloop
  endfacet
  facet normal  0.000000e+00 -8.459914e-01  5.331966e-01
    outer loop
      vertex  2.210194e-01 -1.977898e+01  2.627048e+00
      vertex  9.901752e+00 -1.990175e+01  2.432253e+00
      vertex  9.778980e+00 -1.977898e+01  2.627048e+00
    endloop
  endfacet
  facet normal  0.000000e+00 -6.331243e-01  7.740502e-01
    outer loop
      vertex  2.210194e-01 -1.977898e+01  2.627048e+00
      vertex  9.778980e+00 -1.977898e+01  2.627048e+00
      vertex  5.398849e-01 -1.946012e+01  2.887859e+00
    endloop
  endfacet
  facet normal  0.000000e+00 -6.331243e-01  7.740502e-01
    outer loop
      vertex  5.398849e-01 -1.946012e+01  2.887859e+00
      vertex  9.778980e+00 -1.977898e+01  2.627048e+00
      vertex  9.460115e+00 -1.946012e+01  2.887859e+00
    endloop
  endfacet
  facet normal  0.000000e+00 -2.367915e-01  9.715605e-01
    outer loop
      vertex  5.398849e-01 -1.946012e+01  2.887859e+00
      vertex  9.460115e+00 -1.946012e+01  2.887859e+00
      vertex  1.000000e+00 -1.900000e+01  3.000000e+00
    endloop
  endfacet
  facet normal  0.000000e+00 -2.367915e-01  9.715605e-01
    outer loop
      vertex  1.000000e+00 -1.900000e+01  3.000000e+00
      vertex  9.460115e+00 -1.946012e+01  2.887859e+00
      vertex  9.000000e+00 -1.900000e+01  3.000000e+00
    endloop
  endfacet
  facet normal -9.238795e-01  2.051425e-17  3.826834e-01
    outer loop
      vertex  0.000000e+00 -1.000000e+01  2.000000e+00
      vertex -2.220446e-16 -2.000000e+01  2.000000e+00
      vertex  2.928932e-01 -1.000000e+01  2.707107e+00
    endloop
  endfacet
  facet normal -9.756848e-01  1.310663e-02  2.187861e-01
    outer loop
      vertex  2.928932e-01 -1.000000e+01  2.707107e+00
      vertex -2.220446e-16 -2.000000e+01  2.000000e+00
      vertex  9.824746e-02 -1.990175e+01  2.432253e+00
    endloop
  endfacet
  facet normal -8.465196e-01  1.863479e-03  5.323542e-01
    outer loop
      vertex  2.928932e-01 -1.000000e+01  2.707107e+00
      vertex  9.824746e-02 -1.990175e+01  2.432253e+00
      vertex  2.210194e-01 -1.977898e+01  2.627048e+00
    endloop
  endfacet
  facet normal -2.367917e-01  0.000000e+00  9.715604e-01
    outer loop
      vertex  1.000000e+00 -1.900000e+01  3.000000e+00
      vertex  1.000000e+00 -1.000000e+01  3.000000e+00
      vertex  5.398849e-01 -1.946012e+01  2.887859e+00
    endloop
  endfacet
  facet normal -3.826721e-01  7.660774e-03  9.238524e-01
    outer loop
      vertex  5.398849e-01 -1.946012e+01  2.887859e+00
      vertex  1.000000e+00 -1.000000e+01  3.000000e+00
      vertex  2.928932e-01 -1.000000e+01  2.707107e+00
    endloop
  endfacet
  facet normal -6.321047e-01 -1.697959e-03  7.748811e-01
    outer loop
      vertex  5.398849e-01 -1.946012e+01  2.887859e+00
      vertex  2.928932e-01 -1.000000e+01  2.707107e+00
      vertex  2.210194e-01 -1.977898e+01  2.627048e+00
    endloop
  endfacet
  facet normal  -0.000000e+00  5.877854e-01  8.090169e-01
    outer loop
      vertex  1.000000e+01 -9.270510e-01  1.514683e+01
      vertex  0.000000e+00 -2.427051e+00  1.623664e+01
      vertex  1.000000e+01 -2.427051e+00  1.623664e+01
    endloop
  endfacet
  facet normal  0.000000e+00  9.510564e-01  3.090170e-01
    outer loop
      vertex  1.000000e+01 -2.427051e+00  1.623664e+01
      vertex  0.000000e+00 -2.427051e+00  1.623664e+01
      vertex  0.000000e+00 -3.000000e+00  1.800000e+01
    endloop
  endfacet
  facet normal  -0.000000e+00  9.510564e-01  3.090170e-01
    outer loop
      vertex  1.000000e+01 -2.427051e+00  1.623664e+01
      vertex  0.000000e+00 -3.000000e+00  1.800000e+01
      vertex  1.000000e+01 -3.000000e+00  1.800000e+01
    endloop
  endfacet
  facet normal  0.000000e+00  5.877854e-01  8.090169e-01
    outer loop
      vertex  0.000000e+00 -2.427051e+00  1.623664e+01
      vertex  1.000000e+01 -9.270510e-01  1.514683e+01
      vertex  0.000000e+00 -9.270510e-01  1.514683e+01
    endloop
  endfacet
  facet normal  0.000000e+00  0.000000e+00  1.000000e+00
    outer loop
      vertex  0.000000e+00 -9.270510e-01  1.514683e+01
      vertex  1.000000e+01 -9.270510e-01  1.514683e+01
      vertex  1.000000e+01  9.270510e-01  1.514683e+01
    endloop
  endfacet
  facet normal  0.000000e+00  0.000000e+00  1.000000e+00
    outer loop
      vertex  0.000000e+00 -9.270510e-01  1.514683e+01
      vertex  1.000000e+01  9.270510e-01  1.514683e+01
      vertex  0.000000e+00  9.270510e-01  1.514683e+01
    endloop
  endfacet
  facet normal  0.000000e+00 -5.877854e-01  8.090169e-01
    outer loop
      vertex  0.000000e+00  9.270510e-01  1.514683e+01
      vertex  1.000000e+01  9.270510e-01  1.514683e+01
      vertex  1.000000e+01  2.427051e+00  1.623664e+01
    endloop
  endfacet
  facet normal  0.000000e+00 -5.877854e-01  8.090169e-01
    outer loop
      vertex  0.000000e+00  9.270510e-01  1.514683e+01
      vertex  1.000000e+01  2.427051e+00  1.623664e+01
      vertex  0.000000e+00  2.427051e+00  1.623664e+01
    endloop
  endfacet
  facet normal  0.000000e+00 -9.510564e-01  3.090170e-01
    outer loop
      vertex  0.000000e+00  2.427051e+00  1.623664e+01
      vertex  1.000000e+01  2.427051e+00  1.623664e+01
      vertex  1.000000e+01  3.000000e+00  1.800000e+01
    endloop
  endfacet
  facet normal  0.000000e+00 -9.510564e-01  3.090170e-01
    outer loop
      vertex  0.000000e+00  2.427051e+00  1.623664e+01
      vertex  1.000000e+01  3.000000e+00  1.800000e+01
      vertex  0.000000e+00  3.000000e+00  1.800000e+01
    endloop
  endfacet
  facet normal  0.000000e+00 -5.877857e-01 -8.090166e-01
    outer loop
      vertex  1.000000e+01  9.270510e-01  2.085317e+01
      vertex  0.000000e+00  2.427051e+00  1.976336e+01
      vertex  1.000000e+01  2.427051e+00  1.976336e+01
    endloop
  endfacet
  facet normal  -0.000000e+00 -9.510564e-01 -3.090170e-01
    outer loop
      vertex  1.000000e+01  2.427051e+00  1.976336e+01
      vertex  0.000000e+00  2.427051e+00  1.976336e+01
      vertex  0.000000e+00  3.000000e+00  1.800000e+01
    endloop
  endfacet
  facet normal  0.000000e+00 -9.510564e-01 -3.090170e-01
    outer loop
      vertex  1.000000e+01  2.427051e+00  1.976336e+01
      vertex  0.000000e+00  3.000000e+00  1.800000e+01
      vertex  1.000000e+01  3.000000e+00  1.800000e+01
    endloop
  endfacet
  facet normal  -0.000000e+00 -5.877857e-01 -8.090166e-01
    outer loop
      vertex  0.000000e+00  2.427051e+00  1.976336e+01
      vertex  1.000000e+01  9.270510e-01  2.085317e+01
      vertex  0.000000e+00  9.270510e-01  2.085317e+01
    endloop
  endfacet
  facet normal  0.000000e+00  0.000000e+00 -1.000000e+00
    outer loop
      vertex  0.000000e+00  9.270510e-01  2.085317e+01
      vertex  1.000000e+01  9.270510e-01  2.085317e+01
      vertex  1.000000e+01 -9.270510e-01  2.085317e+01
    endloop
  endfacet
  facet normal  0.000000e+00  0.000000e+00 -1.000000e+00
    outer loop
      vertex  0.000000e+00  9.270510e-01  2.085317e+01
      vertex  1.000000e+01 -9.270510e-01  2.085317e+01
      vertex  0.000000e+00 -9.270510e-01  2.085317e+01
    endloop
  endfacet
  facet normal  0.000000e+00  5.877857e-01 -8.090166e-01
    outer loop
      vertex  0.000000e+00 -9.270510e-01  2.085317e+01
      vertex  1.000000e+01 -9.270510e-01  2.085317e+01
      vertex  1.000000e+01 -2.427051e+00  1.976336e+01
    endloop
  endfacet
  facet normal  0.000000e+00  5.877857e-01 -8.090166e-01
    outer loop
      vertex  0.000000e+00 -9.270510e-01  2.085317e+01
      vertex  1.000000e+01 -2.427051e+00  1.976336e+01
      vertex  0.000000e+00 -2.427051e+00  1.976336e+01
    endloop
  endfacet
  facet normal  0.000000e+00  9.510564e-01 -3.090170e-01
    outer loop
      vertex  0.000000e+00 -2.427051e+00  1.976336e+01
      vertex  1.000000e+01 -2.427051e+00  1.976336e+01
      vertex  1.000000e+01 -3.000000e+00  1.800000e+01
    endloop
  endfacet
  facet normal  0.000000e+00  9.510564e-01 -3.090170e-01
    outer loop
      vertex  0.000000e+00 -2.427051e+00  1.976336e+01
      vertex  1.000000e+01 -3.000000e+00  1.800000e+01
      vertex  0.000000e+00 -3.000000e+00  1.800000e+01
    endloop
  endfacet
  facet normal  0.000000e+00  1.950901e-01  9.807854e-01
    outer loop
      vertex  0.000000e+00 -4.043810e-15  2.500000e+01
      vertex  1.000000e+01 -4.043810e-15  2.500000e+01
      vertex  0.000000e+00  3.826834e+00  2.423880e+01
    endloop
  endfacet
  facet normal  -0.000000e+00  1.950901e-01  9.807854e-01
    outer loop
      vertex  0.000000e+00  3.826834e+00  2.423880e+01
      vertex  1.000000e+01 -4.043810e-15  2.500000e+01
      vertex  1.000000e+01  3.826834e+00  2.423880e+01
    endloop
  endfacet
  facet normal  0.000000e+00  5.555704e-01  8.314694e-01
    outer loop
      vertex  0.000000e+00  3.826834e+00  2.423880e+01
      vertex  1.000000e+01  3.826834e+00  2.423880e+01
      vertex  0.000000e+00  7.071068e+00  2.207107e+01
    endloop
  endfacet
  facet normal  -0.000000e+00  5.555704e-01  8.314694e-01
    outer loop
      vertex  0.000000e+00  7.071068e+00  2.207107e+01
      vertex  1.000000e+01  3.826834e+00  2.423880e+01
      vertex  1.000000e+01  7.071068e+00  2.207107e+01
    endloop
  endfacet
  facet normal  0.000000e+00  8.314696e-01  5.555701e-01
    outer loop
      vertex  0.000000e+00  7.071068e+00  2.207107e+01
      vertex  1.000000e+01  7.071068e+00  2.207107e+01
      vertex  0.000000e+00  9.238795e+00  1.882683e+01
    endloop
  endfacet
  facet normal  -0.000000e+00  8.314696e-01  5.555701e-01
    outer loop
      vertex  0.000000e+00  9.238795e+00  1.882683e+01
      vertex  1.000000e+01  7.071068e+00  2.207107e+01
      vertex  1.000000e+01  9.238795e+00  1.882683e+01
    endloop
  endfacet
  facet normal  0.000000e+00  9.807853e-01  1.950904e-01
    outer loop
      vertex  0.000000e+00  9.238795e+00  1.882683e+01
      vertex  1.000000e+01  9.238795e+00  1.882683e+01
      vertex  0.000000e+00  1.000000e+01  1.500000e+01
    endloop
  endfacet
  facet normal  -0.000000e+00  9.807853e-01  1.950904e-01
    outer loop
      vertex  0.000000e+00  1.000000e+01  1.500000e+01
      vertex  1.000000e+01  9.238795e+00  1.882683e+01
      vertex  1.000000e+01  1.000000e+01  1.500000e+01
    endloop
  endfacet
  facet normal  0.000000e+00 -9.807853e-01  1.950904e-01
    outer loop
      vertex  0.000000e+00 -1.000000e+01  1.500000e+01
      vertex  1.000000e+01 -1.000000e+01  1.500000e+01
      vertex  0.000000e+00 -9.238795e+00  1.882683e+01
    endloop
  endfacet
  facet normal  0.000000e+00 -9.807853e-01  1.950904e-01
    outer loop
      vertex  0.000000e+00 -9.238795e+00  1.882683e+01
      vertex  1.000000e+01 -1.000000e+01  1.500000e+01
      vertex  1.000000e+01 -9.238795e+00  1.882683e+01
    endloop
  endfacet
  facet normal  0.000000e+00 -8.314696e-01  5.555701e-01
    outer loop
      vertex  0.000000e+00 -9.238795e+00  1.882683e+01
      vertex  1.000000e+01 -9.238795e+00  1.882683e+01
      vertex  0.000000e+00 -7.071068e+00  2.207107e+01
    endloop
  endfacet
  facet normal  0.000000e+00 -8.314696e-01  5.555701e-01
    outer loop
      vertex  0.000000e+00 -7.071068e+00  2.207107e+01
      vertex  1.000000e+01 -9.238795e+00  1.882683e+01
      vertex  1.000000e+01 -7.071068e+00  2.207107e+01
    endloop
  endfacet
  facet normal  0.000000e+00 -5.555704e-01  8.314694e-01
    outer loop
      vertex  0.000000e+00 -7.071068e+00  2.207107e+01
      vertex  1.000000e+01 -7.071068e+00  2.207107e+01
      vertex  0.000000e+00 -3.826834e+00  2.423880e+01
    endloop
  endfacet
  facet normal  0.000000e+00 -5.555704e-01  8.314694e-01
    outer loop
      vertex  0.000000e+00 -3.826834e+00  2.423880e+01
      vertex  1.000000e+01 -7.071068e+00  2.207107e+01
      vertex  1.000000e+01 -3.826834e+00  2.423880e+01
    endloop
  endfacet
  facet normal  0.000000e+00 -1.950901e-01  9.807854e-01
    outer loop
      vertex  0.000000e+00 -3.826834e+00  2.423880e+01
      vertex  1.000000e+01 -3.826834e+00  2.423880e+01
      vertex  0.000000e+00 -4.043810e-15  2.500000e+01
    endloop
  endfacet
  facet normal  0.000000e+00 -1.950901e-01  9.807854e-01
    outer loop
      vertex  0.000000e+00 -4.043810e-15  2.500000e+01
      vertex  1.000000e+01 -3.826834e+00  2.423880e+01
      vertex  1.000000e+01 -4.043810e-15  2.500000e+01
    endloop
  endfacet
  facet normal  0.000000e+00  -0.000000e+00 -1.000000e+00
    outer loop
      vertex  3.585786e+00 -1.358579e+01  0.000000e+00
      vertex  5.000000e+00  1.300000e+01  0.000000e+00
      vertex  5.000000e+00 -1.300000e+01  0.000000e+00
    endloop
  endfacet
  facet normal  0.000000e+00  0.000000e+00 -1.000000e+00
    outer loop
      vertex  6.414214e+00 -1.358579e+01  0.000000e+00
      vertex  5.000000e+00 -1.300000e+01  0.000000e+00
      vertex  5.000000e+00  1.300000e+01  0.000000e+00
    endloop
  endfacet
  facet normal  0.000000e+00  0.000000e+00 -1.000000e+00
    outer loop
      vertex  1.000000e+01  2.000000e+01  0.000000e+00
      vertex  1.000000e+01 -2.000000e+01  0.000000e+00
      vertex  7.000000e+00  1.500000e+01  0.000000e+00
    endloop
  endfacet
  facet normal  0.000000e+00  0.000000e+00 -1.000000e+00
    outer loop
      vertex  1.000000e+01  2.000000e+01  0.000000e+00
      vertex  7.000000e+00  1.500000e+01  0.000000e+00
      vertex  6.414214e+00  1.641421e+01  0.000000e+00
    endloop
  endfacet
  facet normal  0.000000e+00  0.000000e+00 -1.000000e+00
    outer loop
      vertex  1.000000e+01  2.000000e+01  0.000000e+00
      vertex  6.414214e+00  1.641421e+01  0.000000e+00
      vertex  5.000000e+00  1.700000e+01  0.000000e+00
    endloop
  endfacet
  facet normal  0.000000e+00  0.000000e+00 -1.000000e+00
    outer loop
      vertex  1.000000e+01  2.000000e+01  0.000000e+00
      vertex  5.000000e+00  1.700000e+01  0.000000e+00
      vertex  0.000000e+00  2.000000e+01  0.000000e+00
    endloop
  endfacet
  facet normal  0.000000e+00  -0.000000e+00 -1.000000e+00
    outer loop
      vertex  0.000000e+00 -2.000000e+01  0.000000e+00
      vertex  3.000000e+00  1.500000e+01  0.000000e+00
      vertex  3.585786e+00  1.358579e+01  0.000000e+00
    endloop
  endfacet
  facet normal  0.000000e+00  -0.000000e+00 -1.000000e+00
    outer loop
      vertex  0.000000e+00 -2.000000e+01  0.000000e+00
      vertex  3.585786e+00  1.358579e+01  0.000000e+00
      vertex  5.000000e+00  1.300000e+01  0.000000e+00
    endloop
  endfacet
  facet normal  0.000000e+00  0.000000e+00 -1.000000e+00
    outer loop
      vertex  0.000000e+00 -2.000000e+01  0.000000e+00
      vertex  5.000000e+00  1.300000e+01  0.000000e+00
      vertex  3.585786e+00 -1.358579e+01  0.000000e+00
    endloop
  endfacet
  facet normal  0.000000e+00  0.000000e+00 -1.000000e+00
    outer loop
      vertex  0.000000e+00 -2.000000e+01  0.000000e+00
      vertex  3.585786e+00 -1.358579e+01  0.000000e+00
      vertex  3.000000e+00 -1.500000e+01  0.000000e+00
    endloop
  endfacet
  facet normal  0.000000e+00  -0.000000e+00 -1.000000e+00
    outer loop
      vertex  0.000000e+00 -2.000000e+01  0.000000e+00
      vertex  3.000000e+00 -1.500000e+01  0.000000e+00
      vertex  3.585786e+00 -1.641421e+01  0.000000e+00
    endloop
  endfacet
  facet normal  0.000000e+00  -0.000000e+00 -1.000000e+00
    outer loop
      vertex  0.000000e+00 -2.000000e+01  0.000000e+00
      vertex  3.585786e+00 -1.641421e+01  0.000000e+00
      vertex  5.000000e+00 -1.700000e+01  0.000000e+00
    endloop
  endfacet
  facet normal  0.000000e+00  -0.000000e+00 -1.000000e+00
    outer loop
      vertex  0.000000e+00 -2.000000e+01  0.000000e+00
      vertex  5.000000e+00 -1.700000e+01  0.000000e+00
      vertex  1.000000e+01 -2.000000e+01  0.000000e+00
    endloop
  endfacet
  facet normal  -0.000000e+00  0.000000e+00 -1.000000e+00
    outer loop
      vertex  0.000000e+00  2.000000e+01  0.000000e+00
      vertex  5.000000e+00  1.700000e+01  0.000000e+00
      vertex  3.585786e+00  1.641421e+01  0.000000e+00
    endloop
  endfacet
  facet normal  -0.000000e+00  0.000000e+00 -1.000000e+00
    outer loop
      vertex  0.000000e+00  2.000000e+01  0.000000e+00
      vertex  3.585786e+00  1.641421e+01  0.000000e+00
      vertex  3.000000e+00  1.500000e+01  0.000000e+00
    endloop
  endfacet
  facet normal  -0.000000e+00  0.000000e+00 -1.000000e+00
    outer loop
      vertex  0.000000e+00  2.000000e+01  0.000000e+00
      vertex  3.000000e+00  1.500000e+01  0.000000e+00
      vertex  0.000000e+00 -2.000000e+01  0.000000e+00
    endloop
  endfacet
  facet normal  0.000000e+00  0.000000e+00 -1.000000e+00
    outer loop
      vertex  1.000000e+01 -2.000000e+01  0.000000e+00
      vertex  5.000000e+00 -1.700000e+01  0.000000e+00
      vertex  6.414214e+00 -1.641421e+01  0.000000e+00
    endloop
  endfacet
  facet normal  0.000000e+00  0.000000e+00 -1.000000e+00
    outer loop
      vertex  1.000000e+01 -2.000000e+01  0.000000e+00
      vertex  6.414214e+00 -1.641421e+01  0.000000e+00
      vertex  7.000000e+00 -1.500000e+01  0.000000e+00
    endloop
  endfacet
  facet normal  0.000000e+00  0.000000e+00 -1.000000e+00
    outer loop
      vertex  1.000000e+01 -2.000000e+01  0.000000e+00
      vertex  7.000000e+00 -1.500000e+01  0.000000e+00
      vertex  6.414214e+00 -1.358579e+01  0.000000e+00
    endloop
  endfacet
  facet normal  0.000000e+00  0.000000e+00 -1.000000e+00
    outer loop
      vertex  1.000000e+01 -2.000000e+01  0.000000e+00
      vertex  6.414214e+00 -1.358579e+01  0.000000e+00
      vertex  5.000000e+00  1.300000e+01  0.000000e+00
    endloop
  endfacet
  facet normal  0.000000e+00  0.000000e+00 -1.000000e+00
    outer loop
      vertex  1.000000e+01 -2.000000e+01  0.000000e+00
      vertex  5.000000e+00  1.300000e+01  0.000000e+00
      vertex  6.414214e+00  1.358579e+01  0.000000e+00
    endloop
  endfacet
  facet normal  0.000000e+00  0.000000e+00 -1.000000e+00
    outer loop
      vertex  1.000000e+01 -2.000000e+01  0.000000e+00
      vertex  6.414214e+00  1.358579e+01  0.000000e+00
      vertex  7.000000e+00  1.500000e+01  0.000000e+00
    endloop
  endfacet
  facet normal  3.826836e-01 -9.238795e-01  0.000000e+00
    outer loop
      vertex  5.000000e+00 -1.300000e+01  0.000000e+00
      vertex  3.585786e+00 -1.358579e+01  3.000000e+00
      vertex  3.585786e+00 -1.358579e+01  0.000000e+00
    endloop
  endfacet
  facet normal  9.238796e-01 -3.826835e-01  0.000000e+00
    outer loop
      vertex  3.585786e+00 -1.358579e+01  0.000000e+00
      vertex  3.585786e+00 -1.358579e+01  3.000000e+00
      vertex  3.000000e+00 -1.500000e+01  3.000000e+00
    endloop
  endfacet
  facet normal  9.238796e-01 -3.826835e-01  0.000000e+00
    outer loop
      vertex  3.585786e+00 -1.358579e+01  0.000000e+00
      vertex  3.000000e+00 -1.500000e+01  3.000000e+00
      vertex  3.000000e+00 -1.500000e+01  0.000000e+00
    endloop
  endfacet
  facet normal  3.826836e-01 -9.238795e-01  0.000000e+00
    outer loop
      vertex  3.585786e+00 -1.358579e+01  3.000000e+00
      vertex  5.000000e+00 -1.300000e+01  0.000000e+00
      vertex  5.000000e+00 -1.300000e+01  3.000000e+00
    endloop
  endfacet
  facet normal -3.826836e-01 -9.238795e-01  -0.000000e+00
    outer loop
      vertex  5.000000e+00 -1.300000e+01  3.000000e+00
      vertex  5.000000e+00 -1.300000e+01  0.000000e+00
      vertex  6.414214e+00 -1.358579e+01  0.000000e+00
    endloop
  endfacet
  facet normal -3.826836e-01 -9.238795e-01  0.000000e+00
    outer loop
      vertex  5.000000e+00 -1.300000e+01  3.000000e+00
      vertex  6.414214e+00 -1.358579e+01  0.000000e+00
      vertex  6.414214e+00 -1.358579e+01  3.000000e+00
    endloop
  endfacet
  facet normal -9.238796e-01 -3.826835e-01  -0.000000e+00
    outer loop
      vertex  6.414214e+00 -1.358579e+01  3.000000e+00
      vertex  6.414214e+00 -1.358579e+01  0.000000e+00
      vertex  7.000000e+00 -1.500000e+01  0.000000e+00
    endloop
  endfacet
  facet normal -9.238796e-01 -3.826835e-01  0.000000e+00
    outer loop
      vertex  6.414214e+00 -1.358579e+01  3.000000e+00
      vertex  7.000000e+00 -1.500000e+01  0.000000e+00
      vertex  7.000000e+00 -1.500000e+01  3.000000e+00
    endloop
  endfacet
  facet normal -3.826836e-01  9.238795e-01  0.000000e+00
    outer loop
      vertex  5.000000e+00 -1.700000e+01  0.000000e+00
      vertex  6.414214e+00 -1.641421e+01  3.000000e+00
      vertex  6.414214e+00 -1.641421e+01  0.000000e+00
    endloop
  endfacet
  facet normal -9.238796e-01  3.826835e-01  0.000000e+00
    outer loop
      vertex  6.414214e+00 -1.641421e+01  0.000000e+00
      vertex  6.414214e+00 -1.641421e+01  3.000000e+00
      vertex  7.000000e+00 -1.500000e+01  3.000000e+00
    endloop
  endfacet
  facet normal -9.238796e-01  3.826835e-01  0.000000e+00
    outer loop
      vertex  6.414214e+00 -1.641421e+01  0.000000e+00
      vertex  7.000000e+00 -1.500000e+01  3.000000e+00
      vertex  7.000000e+00 -1.500000e+01  0.000000e+00
    endloop
  endfacet
  facet normal -3.826836e-01  9.238795e-01  0.000000e+00
    outer loop
      vertex  6.414214e+00 -1.641421e+01  3.000000e+00
      vertex  5.000000e+00 -1.700000e+01  0.000000e+00
      vertex  5.000000e+00 -1.700000e+01  3.000000e+00
    endloop
  endfacet
  facet normal  3.826836e-01  9.238795e-01  0.000000e+00
    outer loop
      vertex  5.000000e+00 -1.700000e+01  3.000000e+00
      vertex  5.000000e+00 -1.700000e+01  0.000000e+00
      vertex  3.585786e+00 -1.641421e+01  0.000000e+00
    endloop
  endfacet
  facet normal  3.826836e-01  9.238795e-01  -0.000000e+00
    outer loop
      vertex  5.000000e+00 -1.700000e+01  3.000000e+00
      vertex  3.585786e+00 -1.641421e+01  0.000000e+00
      vertex  3.585786e+00 -1.641421e+01  3.000000e+00
    endloop
  endfacet
  facet normal  9.238796e-01  3.826835e-01  0.000000e+00
    outer loop
      vertex  3.585786e+00 -1.641421e+01  3.000000e+00
      vertex  3.585786e+00 -1.641421e+01  0.000000e+00
      vertex  3.000000e+00 -1.500000e+01  0.000000e+00
    endloop
  endfacet
  facet normal  9.238796e-01  3.826835e-01  -0.000000e+00
    outer loop
      vertex  3.585786e+00 -1.641421e+01  3.000000e+00
      vertex  3.000000e+00 -1.500000e+01  0.000000e+00
      vertex  3.000000e+00 -1.500000e+01  3.000000e+00
    endloop
  endfacet
  facet normal  3.826836e-01 -9.238795e-01  0.000000e+00
    outer loop
      vertex  5.000000e+00  1.700000e+01  0.000000e+00
      vertex  3.585786e+00  1.641421e+01  3.000000e+00
      vertex  3.585786e+00  1.641421e+01  0.000000e+00
    endloop
  endfacet
  facet normal  9.238796e-01 -3.826835e-01  0.000000e+00
    outer loop
      vertex  3.585786e+00  1.641421e+01  0.000000e+00
      vertex  3.585786e+00  1.641421e+01  3.000000e+00
      vertex  3.000000e+00  1.500000e+01  3.000000e+00
    endloop
  endfacet
  facet normal  9.238796e-01 -3.826835e-01  0.000000e+00
    outer loop
      vertex  3.585786e+00  1.641421e+01  0.000000e+00
      vertex  3.000000e+00  1.500000e+01  3.000000e+00
      vertex  3.000000e+00  1.500000e+01  0.000000e+00
    endloop
  endfacet
  facet normal  3.826836e-01 -9.238795e-01  0.000000e+00
    outer loop
      vertex  3.585786e+00  1.641421e+01  3.000000e+00
      vertex  5.000000e+00  1.700000e+01  0.000000e+00
      vertex  5.000000e+00  1.700000e+01  3.000000e+00
    endloop
  endfacet
  facet normal -3.826836e-01 -9.238795e-01  -0.000000e+00
    outer loop
      vertex  5.000000e+00  1.700000e+01  3.000000e+00
      vertex  5.000000e+00  1.700000e+01  0.000000e+00
      vertex  6.414214e+00  1.641421e+01  0.000000e+00
    endloop
  endfacet
  facet normal -3.826836e-01 -9.238795e-01  0.000000e+00
    outer loop
      vertex  5.000000e+00  1.700000e+01  3.000000e+00
      vertex  6.414214e+00  1.641421e+01  0.000000e+00
      vertex  6.414214e+00  1.641421e+01  3.000000e+00
    endloop
  endfacet
  facet normal -9.238796e-01 -3.826835e-01  -0.000000e+00
    outer loop
      vertex  6.414214e+00  1.641421e+01  3.000000e+00
      vertex  6.414214e+00  1.641421e+01  0.000000e+00
      vertex  7.000000e+00  1.500000e+01  0.000000e+00
    endloop
  endfacet
  facet normal -9.238796e-01 -3.826835e-01  0.000000e+00
    outer loop
      vertex  6.414214e+00  1.641421e+01  3.000000e+00
      vertex  7.000000e+00  1.500000e+01  0.000000e+00
      vertex  7.000000e+00  1.500000e+01  3.000000e+00
    endloop
  endfacet
  facet normal -3.826836e-01  9.238795e-01  0.000000e+00
    outer loop
      vertex  5.000000e+00  1.300000e+01  0.000000e+00
      vertex  6.414214e+00  1.358579e+01  3.000000e+00
      vertex  6.414214e+00  1.358579e+01  0.000000e+00
    endloop
  endfacet
  facet normal -9.238796e-01  3.826835e-01  0.000000e+00
    outer loop
      vertex  6.414214e+00  1.358579e+01  0.000000e+00
      vertex  6.414214e+00  1.358579e+01  3.000000e+00
      vertex  7.000000e+00  1.500000e+01  3.000000e+00
    endloop
  endfacet
  facet normal -9.238796e-01  3.826835e-01  0.000000e+00
    outer loop
      vertex  6.414214e+00  1.358579e+01  0.000000e+00
      vertex  7.000000e+00  1.500000e+01  3.000000e+00
      vertex  7.000000e+00  1.500000e+01  0.000000e+00
    endloop
  endfacet
  facet normal -3.826836e-01  9.238795e-01  0.000000e+00
    outer loop
      vertex  6.414214e+00  1.358579e+01  3.000000e+00
      vertex  5.000000e+00  1.300000e+01  0.000000e+00
      vertex  5.000000e+00  1.300000e+01  3.000000e+00
    endloop
  endfacet
  facet normal  3.826836e-01  9.238795e-01  0.000000e+00
    outer loop
      vertex  5.000000e+00  1.300000e+01  3.000000e+00
      vertex  5.000000e+00  1.300000e+01  0.000000e+00
      vertex  3.585786e+00  1.358579e+01  0.000000e+00
    endloop
  endfacet
  facet normal  3.826836e-01  9.238795e-01  -0.000000e+00
    outer loop
      vertex  5.000000e+00  1.300000e+01  3.000000e+00
      vertex  3.585786e+00  1.358579e+01  0.000000e+00
      vertex  3.585786e+00  1.358579e+01  3.000000e+00
    endloop
  endfacet
  facet normal  9.238796e-01  3.826835e-01  0.000000e+00
    outer loop
      vertex  3.585786e+00  1.358579e+01  3.000000e+00
      vertex  3.585786e+00  1.358579e+01  0.000000e+00
      vertex  3.000000e+00  1.500000e+01  0.000000e+00
    endloop
  endfacet
  facet normal  9.238796e-01  3.826835e-01  -0.000000e+00
    outer loop
      vertex  3.585786e+00  1.358579e+01  3.000000e+00
      vertex  3.000000e+00  1.500000e+01  0.000000e+00
      vertex  3.000000e+00  1.500000e+01  3.000000e+00
    endloop
  endfacet
endsolid CATIA STL
