solid CATIA STL
  facet normal -1.000000e+00  0.000000e+00  0.000000e+00
    outer loop
      vertex -8.000000e+00  1.400000e+01  2.628728e+01
      vertex -8.000000e+00 -1.500000e+01  2.628728e+01
      vertex -8.000000e+00  1.400000e+01  3.228728e+01
    endloop
  endfacet
  facet normal -1.000000e+00  -0.000000e+00  0.000000e+00
    outer loop
      vertex -8.000000e+00  1.400000e+01  3.228728e+01
      vertex -8.000000e+00 -1.500000e+01  2.628728e+01
      vertex -8.000000e+00 -1.500000e+01  3.228728e+01
    endloop
  endfacet
  facet normal  0.000000e+00 -1.000000e+00  0.000000e+00
    outer loop
      vertex -7.707107e+00 -1.500000e+01  2.558017e+01
      vertex -8.000000e+00 -1.500000e+01  3.228728e+01
      vertex -8.000000e+00 -1.500000e+01  2.628728e+01
    endloop
  endfacet
  facet normal  0.000000e+00 -1.000000e+00  0.000000e+00
    outer loop
      vertex -8.000000e+00 -1.500000e+01  3.228728e+01
      vertex -7.707107e+00 -1.500000e+01  2.558017e+01
      vertex -7.707107e+00 -1.500000e+01  3.299439e+01
    endloop
  endfacet
  facet normal  0.000000e+00 -1.000000e+00  0.000000e+00
    outer loop
      vertex -7.707107e+00 -1.500000e+01  3.299439e+01
      vertex -7.707107e+00 -1.500000e+01  2.558017e+01
      vertex -7.000000e+00 -1.500000e+01  2.528728e+01
    endloop
  endfacet
  facet normal  0.000000e+00 -9.999999e-01  0.000000e+00
    outer loop
      vertex -7.707107e+00 -1.500000e+01  3.299439e+01
      vertex -7.000000e+00 -1.500000e+01  2.528728e+01
      vertex -7.000000e+00 -1.500000e+01  3.328728e+01
    endloop
  endfacet
  facet normal  0.000000e+00 -1.000000e+00  0.000000e+00
    outer loop
      vertex -7.000000e+00 -1.500000e+01  3.328728e+01
      vertex -7.000000e+00 -1.500000e+01  2.528728e+01
      vertex -4.825000e+00 -1.500000e+01  2.728728e+01
    endloop
  endfacet
  facet normal  0.000000e+00 -9.999999e-01  0.000000e+00
    outer loop
      vertex -7.000000e+00 -1.500000e+01  3.328728e+01
      vertex -4.825000e+00 -1.500000e+01  2.728728e+01
      vertex -4.825000e+00 -1.500000e+01  3.328728e+01
    endloop
  endfacet
  facet normal  0.000000e+00 -1.000000e+00  0.000000e+00
    outer loop
      vertex -7.000000e+00 -1.500000e+01  2.528728e+01
      vertex  1.800000e+01 -1.500000e+01  2.528728e+01
      vertex -4.825000e+00 -1.500000e+01  2.728728e+01
    endloop
  endfacet
  facet normal  0.000000e+00 -1.000000e+00  0.000000e+00
    outer loop
      vertex -4.825000e+00 -1.500000e+01  2.728728e+01
      vertex  1.800000e+01 -1.500000e+01  2.528728e+01
      vertex  1.582500e+01 -1.500000e+01  2.728728e+01
    endloop
  endfacet
  facet normal  0.000000e+00 -1.000000e+00  -0.000000e+00
    outer loop
      vertex  1.800000e+01 -1.500000e+01  2.528728e+01
      vertex  1.800000e+01 -1.500000e+01  3.328728e+01
      vertex  1.582500e+01 -1.500000e+01  2.728728e+01
    endloop
  endfacet
  facet normal  0.000000e+00 -9.999999e-01  0.000000e+00
    outer loop
      vertex  1.582500e+01 -1.500000e+01  2.728728e+01
      vertex  1.800000e+01 -1.500000e+01  3.328728e+01
      vertex  1.582500e+01 -1.500000e+01  3.328728e+01
    endloop
  endfacet
  facet normal  -0.000000e+00 -9.999999e-01  0.000000e+00
    outer loop
      vertex  1.800000e+01 -1.500000e+01  2.528728e+01
      vertex  1.870711e+01 -1.500000e+01  2.558017e+01
      vertex  1.800000e+01 -1.500000e+01  3.328728e+01
    endloop
  endfacet
  facet normal  0.000000e+00 -9.999999e-01  0.000000e+00
    outer loop
      vertex  1.800000e+01 -1.500000e+01  3.328728e+01
      vertex  1.870711e+01 -1.500000e+01  2.558017e+01
      vertex  1.870711e+01 -1.500000e+01  3.299439e+01
    endloop
  endfacet
  facet normal  -0.000000e+00 -1.000000e+00  0.000000e+00
    outer loop
      vertex  1.870711e+01 -1.500000e+01  2.558017e+01
      vertex  1.900000e+01 -1.500000e+01  2.628728e+01
      vertex  1.870711e+01 -1.500000e+01  3.299439e+01
    endloop
  endfacet
  facet normal  0.000000e+00 -1.000000e+00  0.000000e+00
    outer loop
      vertex  1.870711e+01 -1.500000e+01  3.299439e+01
      vertex  1.900000e+01 -1.500000e+01  2.628728e+01
      vertex  1.900000e+01 -1.500000e+01  3.228728e+01
    endloop
  endfacet
  facet normal -3.826837e-01  9.238794e-01  0.000000e+00
    outer loop
      vertex -7.000000e+00  1.500000e+01  3.228728e+01
      vertex -7.000000e+00  1.500000e+01  2.628728e+01
      vertex -7.707107e+00  1.470711e+01  3.228728e+01
    endloop
  endfacet
  facet normal -3.826837e-01  9.238794e-01  0.000000e+00
    outer loop
      vertex -7.707107e+00  1.470711e+01  3.228728e+01
      vertex -7.000000e+00  1.500000e+01  2.628728e+01
      vertex -7.707107e+00  1.470711e+01  2.628728e+01
    endloop
  endfacet
  facet normal -9.238794e-01  3.826837e-01  0.000000e+00
    outer loop
      vertex -7.707107e+00  1.470711e+01  3.228728e+01
      vertex -7.707107e+00  1.470711e+01  2.628728e+01
      vertex -8.000000e+00  1.400000e+01  3.228728e+01
    endloop
  endfacet
  facet normal -9.238794e-01  3.826837e-01  0.000000e+00
    outer loop
      vertex -8.000000e+00  1.400000e+01  3.228728e+01
      vertex -7.707107e+00  1.470711e+01  2.628728e+01
      vertex -8.000000e+00  1.400000e+01  2.628728e+01
    endloop
  endfacet
  facet normal  0.000000e+00  1.000000e+00  0.000000e+00
    outer loop
      vertex  1.800000e+01  1.500000e+01  2.628728e+01
      vertex -7.000000e+00  1.500000e+01  2.628728e+01
      vertex  1.800000e+01  1.500000e+01  3.228728e+01
    endloop
  endfacet
  facet normal  0.000000e+00  1.000000e+00  0.000000e+00
    outer loop
      vertex  1.800000e+01  1.500000e+01  3.228728e+01
      vertex -7.000000e+00  1.500000e+01  2.628728e+01
      vertex -7.000000e+00  1.500000e+01  3.228728e+01
    endloop
  endfacet
  facet normal  9.238798e-01  3.826827e-01  -0.000000e+00
    outer loop
      vertex  1.900000e+01  1.400000e+01  3.228728e+01
      vertex  1.900000e+01  1.400000e+01  2.628728e+01
      vertex  1.870711e+01  1.470711e+01  3.228728e+01
    endloop
  endfacet
  facet normal  9.238798e-01  3.826827e-01  0.000000e+00
    outer loop
      vertex  1.870711e+01  1.470711e+01  3.228728e+01
      vertex  1.900000e+01  1.400000e+01  2.628728e+01
      vertex  1.870711e+01  1.470711e+01  2.628728e+01
    endloop
  endfacet
  facet normal  3.826833e-01  9.238796e-01  -0.000000e+00
    outer loop
      vertex  1.870711e+01  1.470711e+01  3.228728e+01
      vertex  1.870711e+01  1.470711e+01  2.628728e+01
      vertex  1.800000e+01  1.500000e+01  3.228728e+01
    endloop
  endfacet
  facet normal  3.826833e-01  9.238796e-01  0.000000e+00
    outer loop
      vertex  1.800000e+01  1.500000e+01  3.228728e+01
      vertex  1.870711e+01  1.470711e+01  2.628728e+01
      vertex  1.800000e+01  1.500000e+01  2.628728e+01
    endloop
  endfacet
  facet normal  1.000000e+00  0.000000e+00  0.000000e+00
    outer loop
      vertex  1.900000e+01 -1.500000e+01  2.628728e+01
      vertex  1.900000e+01  1.400000e+01  2.628728e+01
      vertex  1.900000e+01 -1.500000e+01  3.228728e+01
    endloop
  endfacet
  facet normal  1.000000e+00  -0.000000e+00  0.000000e+00
    outer loop
      vertex  1.900000e+01 -1.500000e+01  3.228728e+01
      vertex  1.900000e+01  1.400000e+01  2.628728e+01
      vertex  1.900000e+01  1.400000e+01  3.228728e+01
    endloop
  endfacet
  facet normal  0.000000e+00  0.000000e+00  1.000000e+00
    outer loop
      vertex -7.000000e+00 -1.500000e+01  3.328728e+01
      vertex -4.825000e+00 -1.500000e+01  3.328728e+01
      vertex -7.000000e+00  1.400000e+01  3.328728e+01
    endloop
  endfacet
  facet normal  0.000000e+00  0.000000e+00  1.000000e+00
    outer loop
      vertex -7.000000e+00  1.400000e+01  3.328728e+01
      vertex -4.825000e+00 -1.500000e+01  3.328728e+01
      vertex -4.825000e+00  1.320000e+01  3.328728e+01
    endloop
  endfacet
  facet normal  0.000000e+00  -0.000000e+00  1.000000e+00
    outer loop
      vertex -7.000000e+00  1.400000e+01  3.328728e+01
      vertex -4.825000e+00  1.320000e+01  3.328728e+01
      vertex  1.800000e+01  1.400000e+01  3.328728e+01
    endloop
  endfacet
  facet normal  0.000000e+00  0.000000e+00  1.000000e+00
    outer loop
      vertex  1.800000e+01  1.400000e+01  3.328728e+01
      vertex -4.825000e+00  1.320000e+01  3.328728e+01
      vertex  1.582500e+01  1.320000e+01  3.328728e+01
    endloop
  endfacet
  facet normal  -0.000000e+00  0.000000e+00  9.999999e-01
    outer loop
      vertex  1.800000e+01  1.400000e+01  3.328728e+01
      vertex  1.582500e+01  1.320000e+01  3.328728e+01
      vertex  1.800000e+01 -1.500000e+01  3.328728e+01
    endloop
  endfacet
  facet normal  0.000000e+00  0.000000e+00  9.999999e-01
    outer loop
      vertex  1.800000e+01 -1.500000e+01  3.328728e+01
      vertex  1.582500e+01  1.320000e+01  3.328728e+01
      vertex  1.582500e+01 -1.500000e+01  3.328728e+01
    endloop
  endfacet
  facet normal  3.826822e-01  -0.000000e+00  9.238800e-01
    outer loop
      vertex  1.800000e+01  1.400000e+01  3.328728e+01
      vertex  1.800000e+01 -1.500000e+01  3.328728e+01
      vertex  1.870711e+01  1.400000e+01  3.299439e+01
    endloop
  endfacet
  facet normal  3.826822e-01  0.000000e+00  9.238800e-01
    outer loop
      vertex  1.870711e+01  1.400000e+01  3.299439e+01
      vertex  1.800000e+01 -1.500000e+01  3.328728e+01
      vertex  1.870711e+01 -1.500000e+01  3.299439e+01
    endloop
  endfacet
  facet normal  9.238800e-01  -0.000000e+00  3.826822e-01
    outer loop
      vertex  1.870711e+01  1.400000e+01  3.299439e+01
      vertex  1.870711e+01 -1.500000e+01  3.299439e+01
      vertex  1.900000e+01  1.400000e+01  3.228728e+01
    endloop
  endfacet
  facet normal  9.238800e-01  0.000000e+00  3.826822e-01
    outer loop
      vertex  1.900000e+01  1.400000e+01  3.228728e+01
      vertex  1.870711e+01 -1.500000e+01  3.299439e+01
      vertex  1.900000e+01 -1.500000e+01  3.228728e+01
    endloop
  endfacet
  facet normal -3.826826e-01  0.000000e+00  9.238798e-01
    outer loop
      vertex -7.000000e+00 -1.500000e+01  3.328728e+01
      vertex -7.000000e+00  1.400000e+01  3.328728e+01
      vertex -7.707107e+00 -1.500000e+01  3.299439e+01
    endloop
  endfacet
  facet normal -3.826826e-01  0.000000e+00  9.238798e-01
    outer loop
      vertex -7.707107e+00 -1.500000e+01  3.299439e+01
      vertex -7.000000e+00  1.400000e+01  3.328728e+01
      vertex -7.707107e+00  1.400000e+01  3.299439e+01
    endloop
  endfacet
  facet normal -9.238796e-01  0.000000e+00  3.826833e-01
    outer loop
      vertex -7.707107e+00 -1.500000e+01  3.299439e+01
      vertex -7.707107e+00  1.400000e+01  3.299439e+01
      vertex -8.000000e+00 -1.500000e+01  3.228728e+01
    endloop
  endfacet
  facet normal -9.238796e-01  0.000000e+00  3.826833e-01
    outer loop
      vertex -8.000000e+00 -1.500000e+01  3.228728e+01
      vertex -7.707107e+00  1.400000e+01  3.299439e+01
      vertex -8.000000e+00  1.400000e+01  3.228728e+01
    endloop
  endfacet
  facet normal -3.779637e-01  1.565576e-01  9.124873e-01
    outer loop
      vertex -7.000000e+00  1.400000e+01  3.328728e+01
      vertex -7.500000e+00  1.450000e+01  3.299439e+01
      vertex -7.707107e+00  1.400000e+01  3.299439e+01
    endloop
  endfacet
  facet normal -1.565576e-01  3.779637e-01  9.124873e-01
    outer loop
      vertex -7.000000e+00  1.400000e+01  3.328728e+01
      vertex -7.000000e+00  1.470711e+01  3.299439e+01
      vertex -7.500000e+00  1.450000e+01  3.299439e+01
    endloop
  endfacet
  facet normal -3.574065e-01  8.628563e-01  3.574066e-01
    outer loop
      vertex -7.000000e+00  1.470711e+01  3.299439e+01
      vertex -7.000000e+00  1.500000e+01  3.228728e+01
      vertex -7.500000e+00  1.450000e+01  3.299439e+01
    endloop
  endfacet
  facet normal -3.574071e-01  8.628563e-01  3.574062e-01
    outer loop
      vertex -7.500000e+00  1.450000e+01  3.299439e+01
      vertex -7.000000e+00  1.500000e+01  3.228728e+01
      vertex -7.707107e+00  1.470711e+01  3.228728e+01
    endloop
  endfacet
  facet normal -8.628566e-01  3.574066e-01  3.574061e-01
    outer loop
      vertex -7.500000e+00  1.450000e+01  3.299439e+01
      vertex -7.707107e+00  1.470711e+01  3.228728e+01
      vertex -7.707107e+00  1.400000e+01  3.299439e+01
    endloop
  endfacet
  facet normal -8.628561e-01  3.574070e-01  3.574066e-01
    outer loop
      vertex -7.707107e+00  1.400000e+01  3.299439e+01
      vertex -7.707107e+00  1.470711e+01  3.228728e+01
      vertex -8.000000e+00  1.400000e+01  3.228728e+01
    endloop
  endfacet
  facet normal  0.000000e+00  3.826827e-01  9.238799e-01
    outer loop
      vertex -7.000000e+00  1.400000e+01  3.328728e+01
      vertex  1.800000e+01  1.400000e+01  3.328728e+01
      vertex -7.000000e+00  1.470711e+01  3.299439e+01
    endloop
  endfacet
  facet normal  -0.000000e+00  3.826827e-01  9.238799e-01
    outer loop
      vertex -7.000000e+00  1.470711e+01  3.299439e+01
      vertex  1.800000e+01  1.400000e+01  3.328728e+01
      vertex  1.800000e+01  1.470711e+01  3.299439e+01
    endloop
  endfacet
  facet normal  0.000000e+00  9.238796e-01  3.826833e-01
    outer loop
      vertex -7.000000e+00  1.470711e+01  3.299439e+01
      vertex  1.800000e+01  1.470711e+01  3.299439e+01
      vertex -7.000000e+00  1.500000e+01  3.228728e+01
    endloop
  endfacet
  facet normal  -0.000000e+00  9.238796e-01  3.826833e-01
    outer loop
      vertex -7.000000e+00  1.500000e+01  3.228728e+01
      vertex  1.800000e+01  1.470711e+01  3.299439e+01
      vertex  1.800000e+01  1.500000e+01  3.228728e+01
    endloop
  endfacet
  facet normal  1.565576e-01  3.779637e-01  9.124873e-01
    outer loop
      vertex  1.800000e+01  1.400000e+01  3.328728e+01
      vertex  1.850000e+01  1.450000e+01  3.299439e+01
      vertex  1.800000e+01  1.470711e+01  3.299439e+01
    endloop
  endfacet
  facet normal  3.779633e-01  1.565581e-01  9.124874e-01
    outer loop
      vertex  1.800000e+01  1.400000e+01  3.328728e+01
      vertex  1.870711e+01  1.400000e+01  3.299439e+01
      vertex  1.850000e+01  1.450000e+01  3.299439e+01
    endloop
  endfacet
  facet normal  8.628561e-01  3.574080e-01  3.574054e-01
    outer loop
      vertex  1.870711e+01  1.400000e+01  3.299439e+01
      vertex  1.900000e+01  1.400000e+01  3.228728e+01
      vertex  1.850000e+01  1.450000e+01  3.299439e+01
    endloop
  endfacet
  facet normal  8.628564e-01  3.574060e-01  3.574070e-01
    outer loop
      vertex  1.850000e+01  1.450000e+01  3.299439e+01
      vertex  1.900000e+01  1.400000e+01  3.228728e+01
      vertex  1.870711e+01  1.470711e+01  3.228728e+01
    endloop
  endfacet
  facet normal  3.574065e-01  8.628564e-01  3.574065e-01
    outer loop
      vertex  1.850000e+01  1.450000e+01  3.299439e+01
      vertex  1.870711e+01  1.470711e+01  3.228728e+01
      vertex  1.800000e+01  1.470711e+01  3.299439e+01
    endloop
  endfacet
  facet normal  3.574066e-01  8.628563e-01  3.574066e-01
    outer loop
      vertex  1.800000e+01  1.470711e+01  3.299439e+01
      vertex  1.870711e+01  1.470711e+01  3.228728e+01
      vertex  1.800000e+01  1.500000e+01  3.228728e+01
    endloop
  endfacet
  facet normal  0.000000e+00  0.000000e+00 -1.000000e+00
    outer loop
      vertex  1.800000e+01 -1.500000e+01  2.528728e+01
      vertex -7.000000e+00 -1.500000e+01  2.528728e+01
      vertex -6.000000e+00 -1.100000e+01  2.528728e+01
    endloop
  endfacet
  facet normal  0.000000e+00  0.000000e+00 -1.000000e+00
    outer loop
      vertex  1.800000e+01 -1.500000e+01  2.528728e+01
      vertex -6.000000e+00 -1.100000e+01  2.528728e+01
      vertex  0.000000e+00 -1.100000e+01  2.528728e+01
    endloop
  endfacet
  facet normal  0.000000e+00  0.000000e+00 -1.000000e+00
    outer loop
      vertex  1.800000e+01 -1.500000e+01  2.528728e+01
      vertex  0.000000e+00 -1.100000e+01  2.528728e+01
      vertex  1.100000e+01 -1.100000e+01  2.528728e+01
    endloop
  endfacet
  facet normal  0.000000e+00  0.000000e+00 -1.000000e+00
    outer loop
      vertex  1.800000e+01 -1.500000e+01  2.528728e+01
      vertex  1.100000e+01 -1.100000e+01  2.528728e+01
      vertex  1.700000e+01 -1.100000e+01  2.528728e+01
    endloop
  endfacet
  facet normal  0.000000e+00  0.000000e+00 -1.000000e+00
    outer loop
      vertex  1.800000e+01 -1.500000e+01  2.528728e+01
      vertex  1.700000e+01 -1.100000e+01  2.528728e+01
      vertex  1.700000e+01  1.100000e+01  2.528728e+01
    endloop
  endfacet
  facet normal  0.000000e+00  0.000000e+00 -1.000000e+00
    outer loop
      vertex  1.800000e+01 -1.500000e+01  2.528728e+01
      vertex  1.700000e+01  1.100000e+01  2.528728e+01
      vertex  1.800000e+01  1.400000e+01  2.528728e+01
    endloop
  endfacet
  facet normal  0.000000e+00  0.000000e+00 -1.000000e+00
    outer loop
      vertex  1.800000e+01  1.400000e+01  2.528728e+01
      vertex  1.700000e+01  1.100000e+01  2.528728e+01
      vertex  1.100000e+01  1.100000e+01  2.528728e+01
    endloop
  endfacet
  facet normal  0.000000e+00  0.000000e+00 -1.000000e+00
    outer loop
      vertex  1.800000e+01  1.400000e+01  2.528728e+01
      vertex  1.100000e+01  1.100000e+01  2.528728e+01
      vertex  0.000000e+00  1.100000e+01  2.528728e+01
    endloop
  endfacet
  facet normal  0.000000e+00  0.000000e+00 -1.000000e+00
    outer loop
      vertex  1.800000e+01  1.400000e+01  2.528728e+01
      vertex  0.000000e+00  1.100000e+01  2.528728e+01
      vertex -6.000000e+00  1.100000e+01  2.528728e+01
    endloop
  endfacet
  facet normal  0.000000e+00  0.000000e+00 -1.000000e+00
    outer loop
      vertex  1.800000e+01  1.400000e+01  2.528728e+01
      vertex -6.000000e+00  1.100000e+01  2.528728e+01
      vertex -7.000000e+00  1.400000e+01  2.528728e+01
    endloop
  endfacet
  facet normal  -0.000000e+00  0.000000e+00 -9.999999e-01
    outer loop
      vertex  0.000000e+00  1.100000e+01  2.528728e+01
      vertex  1.100000e+01  1.100000e+01  2.528728e+01
      vertex  0.000000e+00 -1.100000e+01  2.528728e+01
    endloop
  endfacet
  facet normal  0.000000e+00  0.000000e+00 -9.999999e-01
    outer loop
      vertex  0.000000e+00 -1.100000e+01  2.528728e+01
      vertex  1.100000e+01  1.100000e+01  2.528728e+01
      vertex  1.100000e+01 -1.100000e+01  2.528728e+01
    endloop
  endfacet
  facet normal  -0.000000e+00  0.000000e+00 -1.000000e+00
    outer loop
      vertex -7.000000e+00  1.400000e+01  2.528728e+01
      vertex -6.000000e+00  1.100000e+01  2.528728e+01
      vertex -7.000000e+00 -1.500000e+01  2.528728e+01
    endloop
  endfacet
  facet normal  0.000000e+00  0.000000e+00 -1.000000e+00
    outer loop
      vertex -7.000000e+00 -1.500000e+01  2.528728e+01
      vertex -6.000000e+00  1.100000e+01  2.528728e+01
      vertex -6.000000e+00 -1.100000e+01  2.528728e+01
    endloop
  endfacet
  facet normal  0.000000e+00  9.238796e-01 -3.826833e-01
    outer loop
      vertex -7.000000e+00  1.500000e+01  2.628728e+01
      vertex  1.800000e+01  1.500000e+01  2.628728e+01
      vertex -7.000000e+00  1.470711e+01  2.558017e+01
    endloop
  endfacet
  facet normal  0.000000e+00  9.238796e-01 -3.826833e-01
    outer loop
      vertex -7.000000e+00  1.470711e+01  2.558017e+01
      vertex  1.800000e+01  1.500000e+01  2.628728e+01
      vertex  1.800000e+01  1.470711e+01  2.558017e+01
    endloop
  endfacet
  facet normal  0.000000e+00  3.826827e-01 -9.238799e-01
    outer loop
      vertex -7.000000e+00  1.470711e+01  2.558017e+01
      vertex  1.800000e+01  1.470711e+01  2.558017e+01
      vertex -7.000000e+00  1.400000e+01  2.528728e+01
    endloop
  endfacet
  facet normal  0.000000e+00  3.826827e-01 -9.238799e-01
    outer loop
      vertex -7.000000e+00  1.400000e+01  2.528728e+01
      vertex  1.800000e+01  1.470711e+01  2.558017e+01
      vertex  1.800000e+01  1.400000e+01  2.528728e+01
    endloop
  endfacet
  facet normal  9.124873e-01  3.779637e-01 -1.565576e-01
    outer loop
      vertex  1.900000e+01  1.400000e+01  2.628728e+01
      vertex  1.870711e+01  1.450000e+01  2.578728e+01
      vertex  1.870711e+01  1.470711e+01  2.628728e+01
    endloop
  endfacet
  facet normal  9.124874e-01  1.565581e-01 -3.779633e-01
    outer loop
      vertex  1.900000e+01  1.400000e+01  2.628728e+01
      vertex  1.870711e+01  1.400000e+01  2.558017e+01
      vertex  1.870711e+01  1.450000e+01  2.578728e+01
    endloop
  endfacet
  facet normal  3.574054e-01  3.574080e-01 -8.628561e-01
    outer loop
      vertex  1.870711e+01  1.400000e+01  2.558017e+01
      vertex  1.800000e+01  1.400000e+01  2.528728e+01
      vertex  1.870711e+01  1.450000e+01  2.578728e+01
    endloop
  endfacet
  facet normal  3.574070e-01  3.574060e-01 -8.628564e-01
    outer loop
      vertex  1.870711e+01  1.450000e+01  2.578728e+01
      vertex  1.800000e+01  1.400000e+01  2.528728e+01
      vertex  1.800000e+01  1.470711e+01  2.558017e+01
    endloop
  endfacet
  facet normal  3.574065e-01  8.628564e-01 -3.574065e-01
    outer loop
      vertex  1.870711e+01  1.450000e+01  2.578728e+01
      vertex  1.800000e+01  1.470711e+01  2.558017e+01
      vertex  1.870711e+01  1.470711e+01  2.628728e+01
    endloop
  endfacet
  facet normal  3.574066e-01  8.628563e-01 -3.574066e-01
    outer loop
      vertex  1.870711e+01  1.470711e+01  2.628728e+01
      vertex  1.800000e+01  1.470711e+01  2.558017e+01
      vertex  1.800000e+01  1.500000e+01  2.628728e+01
    endloop
  endfacet
  facet normal  3.826822e-01  0.000000e+00 -9.238800e-01
    outer loop
      vertex  1.800000e+01 -1.500000e+01  2.528728e+01
      vertex  1.800000e+01  1.400000e+01  2.528728e+01
      vertex  1.870711e+01 -1.500000e+01  2.558017e+01
    endloop
  endfacet
  facet normal  3.826822e-01  0.000000e+00 -9.238800e-01
    outer loop
      vertex  1.870711e+01 -1.500000e+01  2.558017e+01
      vertex  1.800000e+01  1.400000e+01  2.528728e+01
      vertex  1.870711e+01  1.400000e+01  2.558017e+01
    endloop
  endfacet
  facet normal  9.238800e-01  0.000000e+00 -3.826822e-01
    outer loop
      vertex  1.870711e+01 -1.500000e+01  2.558017e+01
      vertex  1.870711e+01  1.400000e+01  2.558017e+01
      vertex  1.900000e+01 -1.500000e+01  2.628728e+01
    endloop
  endfacet
  facet normal  9.238800e-01  0.000000e+00 -3.826822e-01
    outer loop
      vertex  1.900000e+01 -1.500000e+01  2.628728e+01
      vertex  1.870711e+01  1.400000e+01  2.558017e+01
      vertex  1.900000e+01  1.400000e+01  2.628728e+01
    endloop
  endfacet
  facet normal -9.124869e-01  1.565585e-01 -3.779643e-01
    outer loop
      vertex -8.000000e+00  1.400000e+01  2.628728e+01
      vertex -7.707107e+00  1.450000e+01  2.578728e+01
      vertex -7.707107e+00  1.400000e+01  2.558017e+01
    endloop
  endfacet
  facet normal -9.124869e-01  3.779648e-01 -1.565580e-01
    outer loop
      vertex -8.000000e+00  1.400000e+01  2.628728e+01
      vertex -7.707107e+00  1.470711e+01  2.628728e+01
      vertex -7.707107e+00  1.450000e+01  2.578728e+01
    endloop
  endfacet
  facet normal -3.574071e-01  8.628563e-01 -3.574064e-01
    outer loop
      vertex -7.707107e+00  1.470711e+01  2.628728e+01
      vertex -7.000000e+00  1.500000e+01  2.628728e+01
      vertex -7.707107e+00  1.450000e+01  2.578728e+01
    endloop
  endfacet
  facet normal -3.574069e-01  8.628561e-01 -3.574066e-01
    outer loop
      vertex -7.707107e+00  1.450000e+01  2.578728e+01
      vertex -7.000000e+00  1.500000e+01  2.628728e+01
      vertex -7.000000e+00  1.470711e+01  2.558017e+01
    endloop
  endfacet
  facet normal -3.574077e-01  3.574077e-01 -8.628554e-01
    outer loop
      vertex -7.707107e+00  1.450000e+01  2.578728e+01
      vertex -7.000000e+00  1.470711e+01  2.558017e+01
      vertex -7.707107e+00  1.400000e+01  2.558017e+01
    endloop
  endfacet
  facet normal -3.574061e-01  3.574061e-01 -8.628567e-01
    outer loop
      vertex -7.707107e+00  1.400000e+01  2.558017e+01
      vertex -7.000000e+00  1.470711e+01  2.558017e+01
      vertex -7.000000e+00  1.400000e+01  2.528728e+01
    endloop
  endfacet
  facet normal -3.826826e-01  0.000000e+00 -9.238798e-01
    outer loop
      vertex -7.000000e+00  1.400000e+01  2.528728e+01
      vertex -7.000000e+00 -1.500000e+01  2.528728e+01
      vertex -7.707107e+00  1.400000e+01  2.558017e+01
    endloop
  endfacet
  facet normal -3.826826e-01  -0.000000e+00 -9.238798e-01
    outer loop
      vertex -7.707107e+00  1.400000e+01  2.558017e+01
      vertex -7.000000e+00 -1.500000e+01  2.528728e+01
      vertex -7.707107e+00 -1.500000e+01  2.558017e+01
    endloop
  endfacet
  facet normal -9.238796e-01  0.000000e+00 -3.826833e-01
    outer loop
      vertex -7.707107e+00  1.400000e+01  2.558017e+01
      vertex -7.707107e+00 -1.500000e+01  2.558017e+01
      vertex -8.000000e+00  1.400000e+01  2.628728e+01
    endloop
  endfacet
  facet normal -9.238796e-01  -0.000000e+00 -3.826833e-01
    outer loop
      vertex -8.000000e+00  1.400000e+01  2.628728e+01
      vertex -7.707107e+00 -1.500000e+01  2.558017e+01
      vertex -8.000000e+00 -1.500000e+01  2.628728e+01
    endloop
  endfacet
  facet normal -1.000000e+00  -0.000000e+00  0.000000e+00
    outer loop
      vertex  1.582500e+01 -1.500000e+01  3.328728e+01
      vertex  1.582500e+01  1.320000e+01  3.328728e+01
      vertex  1.582500e+01 -1.500000e+01  2.728728e+01
    endloop
  endfacet
  facet normal -1.000000e+00  0.000000e+00  0.000000e+00
    outer loop
      vertex  1.582500e+01 -1.500000e+01  2.728728e+01
      vertex  1.582500e+01  1.320000e+01  3.328728e+01
      vertex  1.582500e+01  1.320000e+01  2.728728e+01
    endloop
  endfacet
  facet normal  1.000000e+00  -0.000000e+00  0.000000e+00
    outer loop
      vertex -4.825000e+00  1.320000e+01  3.328728e+01
      vertex -4.825000e+00 -1.500000e+01  3.328728e+01
      vertex -4.825000e+00  1.320000e+01  2.728728e+01
    endloop
  endfacet
  facet normal  1.000000e+00  0.000000e+00  0.000000e+00
    outer loop
      vertex -4.825000e+00  1.320000e+01  2.728728e+01
      vertex -4.825000e+00 -1.500000e+01  3.328728e+01
      vertex -4.825000e+00 -1.500000e+01  2.728728e+01
    endloop
  endfacet
  facet normal  0.000000e+00  0.000000e+00  1.000000e+00
    outer loop
      vertex -4.825000e+00 -1.500000e+01  2.728728e+01
      vertex  1.582500e+01 -1.500000e+01  2.728728e+01
      vertex -4.825000e+00  1.320000e+01  2.728728e+01
    endloop
  endfacet
  facet normal  -0.000000e+00  0.000000e+00  1.000000e+00
    outer loop
      vertex -4.825000e+00  1.320000e+01  2.728728e+01
      vertex  1.582500e+01 -1.500000e+01  2.728728e+01
      vertex  1.582500e+01  1.320000e+01  2.728728e+01
    endloop
  endfacet
  facet normal  0.000000e+00 -1.000000e+00  0.000000e+00
    outer loop
      vertex  1.582500e+01  1.320000e+01  3.328728e+01
      vertex -4.825000e+00  1.320000e+01  3.328728e+01
      vertex  1.582500e+01  1.320000e+01  2.728728e+01
    endloop
  endfacet
  facet normal  0.000000e+00 -1.000000e+00  0.000000e+00
    outer loop
      vertex  1.582500e+01  1.320000e+01  2.728728e+01
      vertex -4.825000e+00  1.320000e+01  3.328728e+01
      vertex -4.825000e+00  1.320000e+01  2.728728e+01
    endloop
  endfacet
  facet normal  0.000000e+00  9.063078e-01 -4.226182e-01
    outer loop
      vertex  0.000000e+00  1.100000e+01  2.528728e+01
      vertex  0.000000e+00  4.531539e+00  1.141562e+01
      vertex -4.000000e+00  4.531539e+00  1.141562e+01
    endloop
  endfacet
  facet normal  0.000000e+00  9.063078e-01 -4.226182e-01
    outer loop
      vertex  0.000000e+00  1.100000e+01  2.528728e+01
      vertex -4.000000e+00  4.531539e+00  1.141562e+01
      vertex -4.000000e+00  1.006738e+01  2.328728e+01
    endloop
  endfacet
  facet normal -3.922837e-08  9.063078e-01 -4.226182e-01
    outer loop
      vertex  0.000000e+00  1.100000e+01  2.528728e+01
      vertex -4.000000e+00  1.006738e+01  2.328728e+01
      vertex -4.387590e+00  1.061915e+01  2.447055e+01
    endloop
  endfacet
  facet normal -8.280496e-08  9.063079e-01 -4.226180e-01
    outer loop
      vertex  0.000000e+00  1.100000e+01  2.528728e+01
      vertex -4.387590e+00  1.061915e+01  2.447055e+01
      vertex -5.111722e+00  1.090297e+01  2.507920e+01
    endloop
  endfacet
  facet normal  0.000000e+00  9.063072e-01 -4.226196e-01
    outer loop
      vertex  0.000000e+00  1.100000e+01  2.528728e+01
      vertex -5.111722e+00  1.090297e+01  2.507920e+01
      vertex -6.000000e+00  1.100000e+01  2.528728e+01
    endloop
  endfacet
  facet normal  0.000000e+00 -9.063072e-01 -4.226196e-01
    outer loop
      vertex  0.000000e+00 -1.100000e+01  2.528728e+01
      vertex -6.000000e+00 -1.100000e+01  2.528728e+01
      vertex -5.111722e+00 -1.090297e+01  2.507920e+01
    endloop
  endfacet
  facet normal -7.969977e-08 -9.063079e-01 -4.226180e-01
    outer loop
      vertex  0.000000e+00 -1.100000e+01  2.528728e+01
      vertex -5.111722e+00 -1.090297e+01  2.507920e+01
      vertex -4.387590e+00 -1.061915e+01  2.447055e+01
    endloop
  endfacet
  facet normal -4.413192e-08 -9.063078e-01 -4.226182e-01
    outer loop
      vertex  0.000000e+00 -1.100000e+01  2.528728e+01
      vertex -4.387590e+00 -1.061915e+01  2.447055e+01
      vertex -4.000000e+00 -1.006738e+01  2.328728e+01
    endloop
  endfacet
  facet normal  0.000000e+00 -9.063078e-01 -4.226182e-01
    outer loop
      vertex  0.000000e+00 -1.100000e+01  2.528728e+01
      vertex -4.000000e+00 -1.006738e+01  2.328728e+01
      vertex -4.000000e+00 -4.531539e+00  1.141562e+01
    endloop
  endfacet
  facet normal  0.000000e+00 -9.063078e-01 -4.226182e-01
    outer loop
      vertex  0.000000e+00 -1.100000e+01  2.528728e+01
      vertex -4.000000e+00 -4.531539e+00  1.141562e+01
      vertex  0.000000e+00 -4.531539e+00  1.141562e+01
    endloop
  endfacet
  facet normal -1.000000e+00  0.000000e+00  0.000000e+00
    outer loop
      vertex -4.000000e+00 -9.270510e-01  1.685317e+01
      vertex -4.000000e+00 -2.427051e+00  1.576336e+01
      vertex -4.000000e+00 -1.006738e+01  2.328728e+01
    endloop
  endfacet
  facet normal -1.000000e+00  0.000000e+00  0.000000e+00
    outer loop
      vertex -4.000000e+00  4.531539e+00  1.141562e+01
      vertex -4.000000e+00  3.146602e+00  9.642982e+00
      vertex -4.000000e+00  9.270510e-01  1.114683e+01
    endloop
  endfacet
  facet normal -1.000000e+00  0.000000e+00  0.000000e+00
    outer loop
      vertex -4.000000e+00  4.531539e+00  1.141562e+01
      vertex -4.000000e+00  9.270510e-01  1.114683e+01
      vertex -4.000000e+00  2.427051e+00  1.223664e+01
    endloop
  endfacet
  facet normal -1.000000e+00  0.000000e+00  0.000000e+00
    outer loop
      vertex -4.000000e+00  4.531539e+00  1.141562e+01
      vertex -4.000000e+00  2.427051e+00  1.223664e+01
      vertex -4.000000e+00  3.000000e+00  1.400000e+01
    endloop
  endfacet
  facet normal -1.000000e+00  0.000000e+00  0.000000e+00
    outer loop
      vertex -4.000000e+00  4.531539e+00  1.141562e+01
      vertex -4.000000e+00  3.000000e+00  1.400000e+01
      vertex -4.000000e+00  2.427051e+00  1.576336e+01
    endloop
  endfacet
  facet normal -1.000000e+00  0.000000e+00  0.000000e+00
    outer loop
      vertex -4.000000e+00  4.531539e+00  1.141562e+01
      vertex -4.000000e+00  2.427051e+00  1.576336e+01
      vertex -4.000000e+00  1.006738e+01  2.328728e+01
    endloop
  endfacet
  facet normal -1.000000e+00  0.000000e+00  0.000000e+00
    outer loop
      vertex -4.000000e+00 -4.531539e+00  1.141562e+01
      vertex -4.000000e+00 -1.006738e+01  2.328728e+01
      vertex -4.000000e+00 -2.427051e+00  1.576336e+01
    endloop
  endfacet
  facet normal -1.000000e+00  0.000000e+00  0.000000e+00
    outer loop
      vertex -4.000000e+00 -4.531539e+00  1.141562e+01
      vertex -4.000000e+00 -2.427051e+00  1.576336e+01
      vertex -4.000000e+00 -3.000000e+00  1.400000e+01
    endloop
  endfacet
  facet normal -1.000000e+00  0.000000e+00  -0.000000e+00
    outer loop
      vertex -4.000000e+00 -4.531539e+00  1.141562e+01
      vertex -4.000000e+00 -3.000000e+00  1.400000e+01
      vertex -4.000000e+00 -2.427051e+00  1.223664e+01
    endloop
  endfacet
  facet normal -1.000000e+00  0.000000e+00  -0.000000e+00
    outer loop
      vertex -4.000000e+00 -4.531539e+00  1.141562e+01
      vertex -4.000000e+00 -2.427051e+00  1.223664e+01
      vertex -4.000000e+00 -9.270510e-01  1.114683e+01
    endloop
  endfacet
  facet normal -1.000000e+00  -0.000000e+00  0.000000e+00
    outer loop
      vertex -4.000000e+00 -4.531539e+00  1.141562e+01
      vertex -4.000000e+00 -9.270510e-01  1.114683e+01
      vertex -4.000000e+00 -3.146602e+00  9.642982e+00
    endloop
  endfacet
  facet normal -1.000000e+00  0.000000e+00  0.000000e+00
    outer loop
      vertex -4.000000e+00  1.124755e+00  8.656862e+00
      vertex -4.000000e+00 -1.124755e+00  8.656862e+00
      vertex -4.000000e+00  3.146602e+00  9.642982e+00
    endloop
  endfacet
  facet normal -1.000000e+00  -0.000000e+00  0.000000e+00
    outer loop
      vertex -4.000000e+00  3.146602e+00  9.642982e+00
      vertex -4.000000e+00 -1.124755e+00  8.656862e+00
      vertex -4.000000e+00  9.270510e-01  1.114683e+01
    endloop
  endfacet
  facet normal -1.000000e+00  0.000000e+00  0.000000e+00
    outer loop
      vertex -4.000000e+00 -1.124755e+00  8.656862e+00
      vertex -4.000000e+00 -3.146602e+00  9.642982e+00
      vertex -4.000000e+00  9.270510e-01  1.114683e+01
    endloop
  endfacet
  facet normal -1.000000e+00  -0.000000e+00  0.000000e+00
    outer loop
      vertex -4.000000e+00  9.270510e-01  1.114683e+01
      vertex -4.000000e+00 -3.146602e+00  9.642982e+00
      vertex -4.000000e+00 -9.270510e-01  1.114683e+01
    endloop
  endfacet
  facet normal -1.000000e+00  0.000000e+00  0.000000e+00
    outer loop
      vertex -4.000000e+00  2.427051e+00  1.576336e+01
      vertex -4.000000e+00  9.270510e-01  1.685317e+01
      vertex -4.000000e+00  1.006738e+01  2.328728e+01
    endloop
  endfacet
  facet normal -1.000000e+00  0.000000e+00  0.000000e+00
    outer loop
      vertex -4.000000e+00  1.006738e+01  2.328728e+01
      vertex -4.000000e+00  9.270510e-01  1.685317e+01
      vertex -4.000000e+00 -9.270510e-01  1.685317e+01
    endloop
  endfacet
  facet normal -1.000000e+00  0.000000e+00  0.000000e+00
    outer loop
      vertex -4.000000e+00  1.006738e+01  2.328728e+01
      vertex -4.000000e+00 -9.270510e-01  1.685317e+01
      vertex -4.000000e+00 -1.006738e+01  2.328728e+01
    endloop
  endfacet
  facet normal  0.000000e+00  9.063072e-01 -4.226196e-01
    outer loop
      vertex  1.100000e+01  1.100000e+01  2.528728e+01
      vertex  1.700000e+01  1.100000e+01  2.528728e+01
      vertex  1.611172e+01  1.090297e+01  2.507920e+01
    endloop
  endfacet
  facet normal  7.969979e-08  9.063079e-01 -4.226180e-01
    outer loop
      vertex  1.100000e+01  1.100000e+01  2.528728e+01
      vertex  1.611172e+01  1.090297e+01  2.507920e+01
      vertex  1.538759e+01  1.061915e+01  2.447055e+01
    endloop
  endfacet
  facet normal  4.413192e-08  9.063078e-01 -4.226182e-01
    outer loop
      vertex  1.100000e+01  1.100000e+01  2.528728e+01
      vertex  1.538759e+01  1.061915e+01  2.447055e+01
      vertex  1.500000e+01  1.006738e+01  2.328728e+01
    endloop
  endfacet
  facet normal  0.000000e+00  9.063078e-01 -4.226182e-01
    outer loop
      vertex  1.100000e+01  1.100000e+01  2.528728e+01
      vertex  1.500000e+01  1.006738e+01  2.328728e+01
      vertex  1.500000e+01  4.531539e+00  1.141562e+01
    endloop
  endfacet
  facet normal  0.000000e+00  9.063078e-01 -4.226182e-01
    outer loop
      vertex  1.100000e+01  1.100000e+01  2.528728e+01
      vertex  1.500000e+01  4.531539e+00  1.141562e+01
      vertex  1.100000e+01  4.531539e+00  1.141562e+01
    endloop
  endfacet
  facet normal  1.000000e+00  0.000000e+00  -0.000000e+00
    outer loop
      vertex  1.500000e+01 -1.006738e+01  2.328728e+01
      vertex  1.500000e+01 -2.427051e+00  1.576336e+01
      vertex  1.500000e+01 -9.270510e-01  1.685317e+01
    endloop
  endfacet
  facet normal  1.000000e+00  0.000000e+00  0.000000e+00
    outer loop
      vertex  1.500000e+01  4.531539e+00  1.141562e+01
      vertex  1.500000e+01  1.006738e+01  2.328728e+01
      vertex  1.500000e+01  2.427051e+00  1.576336e+01
    endloop
  endfacet
  facet normal  1.000000e+00  0.000000e+00  0.000000e+00
    outer loop
      vertex  1.500000e+01  4.531539e+00  1.141562e+01
      vertex  1.500000e+01  2.427051e+00  1.576336e+01
      vertex  1.500000e+01  3.000000e+00  1.400000e+01
    endloop
  endfacet
  facet normal  1.000000e+00  0.000000e+00  0.000000e+00
    outer loop
      vertex  1.500000e+01  4.531539e+00  1.141562e+01
      vertex  1.500000e+01  3.000000e+00  1.400000e+01
      vertex  1.500000e+01  2.427051e+00  1.223664e+01
    endloop
  endfacet
  facet normal  1.000000e+00  0.000000e+00  0.000000e+00
    outer loop
      vertex  1.500000e+01  4.531539e+00  1.141562e+01
      vertex  1.500000e+01  2.427051e+00  1.223664e+01
      vertex  1.500000e+01  9.270510e-01  1.114683e+01
    endloop
  endfacet
  facet normal  1.000000e+00  -0.000000e+00  0.000000e+00
    outer loop
      vertex  1.500000e+01  4.531539e+00  1.141562e+01
      vertex  1.500000e+01  9.270510e-01  1.114683e+01
      vertex  1.500000e+01  3.146602e+00  9.642982e+00
    endloop
  endfacet
  facet normal  1.000000e+00  0.000000e+00  -0.000000e+00
    outer loop
      vertex  1.500000e+01 -4.531539e+00  1.141562e+01
      vertex  1.500000e+01 -3.146602e+00  9.642982e+00
      vertex  1.500000e+01 -9.270510e-01  1.114683e+01
    endloop
  endfacet
  facet normal  1.000000e+00  0.000000e+00  0.000000e+00
    outer loop
      vertex  1.500000e+01 -4.531539e+00  1.141562e+01
      vertex  1.500000e+01 -9.270510e-01  1.114683e+01
      vertex  1.500000e+01 -2.427051e+00  1.223664e+01
    endloop
  endfacet
  facet normal  1.000000e+00  0.000000e+00  0.000000e+00
    outer loop
      vertex  1.500000e+01 -4.531539e+00  1.141562e+01
      vertex  1.500000e+01 -2.427051e+00  1.223664e+01
      vertex  1.500000e+01 -3.000000e+00  1.400000e+01
    endloop
  endfacet
  facet normal  1.000000e+00  0.000000e+00  -0.000000e+00
    outer loop
      vertex  1.500000e+01 -4.531539e+00  1.141562e+01
      vertex  1.500000e+01 -3.000000e+00  1.400000e+01
      vertex  1.500000e+01 -2.427051e+00  1.576336e+01
    endloop
  endfacet
  facet normal  1.000000e+00  0.000000e+00  0.000000e+00
    outer loop
      vertex  1.500000e+01 -4.531539e+00  1.141562e+01
      vertex  1.500000e+01 -2.427051e+00  1.576336e+01
      vertex  1.500000e+01 -1.006738e+01  2.328728e+01
    endloop
  endfacet
  facet normal  1.000000e+00  0.000000e+00  0.000000e+00
    outer loop
      vertex  1.500000e+01  1.124755e+00  8.656862e+00
      vertex  1.500000e+01  3.146602e+00  9.642982e+00
      vertex  1.500000e+01 -1.124755e+00  8.656862e+00
    endloop
  endfacet
  facet normal  1.000000e+00  0.000000e+00  0.000000e+00
    outer loop
      vertex  1.500000e+01 -1.124755e+00  8.656862e+00
      vertex  1.500000e+01  3.146602e+00  9.642982e+00
      vertex  1.500000e+01  9.270510e-01  1.114683e+01
    endloop
  endfacet
  facet normal  1.000000e+00  0.000000e+00  0.000000e+00
    outer loop
      vertex  1.500000e+01 -1.124755e+00  8.656862e+00
      vertex  1.500000e+01  9.270510e-01  1.114683e+01
      vertex  1.500000e+01 -3.146602e+00  9.642982e+00
    endloop
  endfacet
  facet normal  1.000000e+00  0.000000e+00  0.000000e+00
    outer loop
      vertex  1.500000e+01 -3.146602e+00  9.642982e+00
      vertex  1.500000e+01  9.270510e-01  1.114683e+01
      vertex  1.500000e+01 -9.270510e-01  1.114683e+01
    endloop
  endfacet
  facet normal  1.000000e+00  0.000000e+00  -0.000000e+00
    outer loop
      vertex  1.500000e+01 -1.006738e+01  2.328728e+01
      vertex  1.500000e+01 -9.270510e-01  1.685317e+01
      vertex  1.500000e+01  1.006738e+01  2.328728e+01
    endloop
  endfacet
  facet normal  1.000000e+00  0.000000e+00  0.000000e+00
    outer loop
      vertex  1.500000e+01  1.006738e+01  2.328728e+01
      vertex  1.500000e+01 -9.270510e-01  1.685317e+01
      vertex  1.500000e+01  9.270510e-01  1.685317e+01
    endloop
  endfacet
  facet normal  1.000000e+00  -0.000000e+00  0.000000e+00
    outer loop
      vertex  1.500000e+01  1.006738e+01  2.328728e+01
      vertex  1.500000e+01  9.270510e-01  1.685317e+01
      vertex  1.500000e+01  2.427051e+00  1.576336e+01
    endloop
  endfacet
  facet normal  0.000000e+00 -9.063078e-01 -4.226182e-01
    outer loop
      vertex  1.100000e+01 -1.100000e+01  2.528728e+01
      vertex  1.100000e+01 -4.531539e+00  1.141562e+01
      vertex  1.500000e+01 -4.531539e+00  1.141562e+01
    endloop
  endfacet
  facet normal  0.000000e+00 -9.063078e-01 -4.226182e-01
    outer loop
      vertex  1.100000e+01 -1.100000e+01  2.528728e+01
      vertex  1.500000e+01 -4.531539e+00  1.141562e+01
      vertex  1.500000e+01 -1.006738e+01  2.328728e+01
    endloop
  endfacet
  facet normal  3.922837e-08 -9.063078e-01 -4.226182e-01
    outer loop
      vertex  1.100000e+01 -1.100000e+01  2.528728e+01
      vertex  1.500000e+01 -1.006738e+01  2.328728e+01
      vertex  1.538759e+01 -1.061915e+01  2.447055e+01
    endloop
  endfacet
  facet normal  8.280497e-08 -9.063079e-01 -4.226180e-01
    outer loop
      vertex  1.100000e+01 -1.100000e+01  2.528728e+01
      vertex  1.538759e+01 -1.061915e+01  2.447055e+01
      vertex  1.611172e+01 -1.090297e+01  2.507920e+01
    endloop
  endfacet
  facet normal  0.000000e+00 -9.063072e-01 -4.226196e-01
    outer loop
      vertex  1.100000e+01 -1.100000e+01  2.528728e+01
      vertex  1.611172e+01 -1.090297e+01  2.507920e+01
      vertex  1.700000e+01 -1.100000e+01  2.528728e+01
    endloop
  endfacet
  facet normal -9.503170e-01  -0.000000e+00 -3.112837e-01
    outer loop
      vertex -4.387590e+00 -1.061915e+01  2.447055e+01
      vertex -4.000000e+00  1.006738e+01  2.328728e+01
      vertex -4.000000e+00 -1.006738e+01  2.328728e+01
    endloop
  endfacet
  facet normal -9.503170e-01  0.000000e+00 -3.112838e-01
    outer loop
      vertex -4.000000e+00  1.006738e+01  2.328728e+01
      vertex -4.387590e+00 -1.061915e+01  2.447055e+01
      vertex -4.387590e+00  1.061915e+01  2.447055e+01
    endloop
  endfacet
  facet normal -6.434230e-01  -0.000000e+00 -7.655110e-01
    outer loop
      vertex -4.387590e+00  1.061915e+01  2.447055e+01
      vertex -4.387590e+00 -1.061915e+01  2.447055e+01
      vertex -5.111722e+00 -1.090297e+01  2.507920e+01
    endloop
  endfacet
  facet normal -6.434229e-01  0.000000e+00 -7.655110e-01
    outer loop
      vertex -4.387590e+00  1.061915e+01  2.447055e+01
      vertex -5.111722e+00 -1.090297e+01  2.507920e+01
      vertex -5.111722e+00  1.090297e+01  2.507920e+01
    endloop
  endfacet
  facet normal -2.280810e-01  -0.000000e+00 -9.736422e-01
    outer loop
      vertex -5.111722e+00  1.090297e+01  2.507920e+01
      vertex -5.111722e+00 -1.090297e+01  2.507920e+01
      vertex -6.000000e+00 -1.100000e+01  2.528728e+01
    endloop
  endfacet
  facet normal -2.280810e-01  0.000000e+00 -9.736421e-01
    outer loop
      vertex -5.111722e+00  1.090297e+01  2.507920e+01
      vertex -6.000000e+00 -1.100000e+01  2.528728e+01
      vertex -6.000000e+00  1.100000e+01  2.528728e+01
    endloop
  endfacet
  facet normal  2.280809e-01  0.000000e+00 -9.736422e-01
    outer loop
      vertex  1.611172e+01 -1.090297e+01  2.507920e+01
      vertex  1.700000e+01  1.100000e+01  2.528728e+01
      vertex  1.700000e+01 -1.100000e+01  2.528728e+01
    endloop
  endfacet
  facet normal  2.280809e-01  0.000000e+00 -9.736422e-01
    outer loop
      vertex  1.700000e+01  1.100000e+01  2.528728e+01
      vertex  1.611172e+01 -1.090297e+01  2.507920e+01
      vertex  1.611172e+01  1.090297e+01  2.507920e+01
    endloop
  endfacet
  facet normal  6.434231e-01  0.000000e+00 -7.655107e-01
    outer loop
      vertex  1.611172e+01  1.090297e+01  2.507920e+01
      vertex  1.611172e+01 -1.090297e+01  2.507920e+01
      vertex  1.538759e+01 -1.061915e+01  2.447055e+01
    endloop
  endfacet
  facet normal  6.434232e-01  0.000000e+00 -7.655107e-01
    outer loop
      vertex  1.611172e+01  1.090297e+01  2.507920e+01
      vertex  1.538759e+01 -1.061915e+01  2.447055e+01
      vertex  1.538759e+01  1.061915e+01  2.447055e+01
    endloop
  endfacet
  facet normal  9.503170e-01  0.000000e+00 -3.112838e-01
    outer loop
      vertex  1.538759e+01  1.061915e+01  2.447055e+01
      vertex  1.538759e+01 -1.061915e+01  2.447055e+01
      vertex  1.500000e+01 -1.006738e+01  2.328728e+01
    endloop
  endfacet
  facet normal  9.503170e-01  0.000000e+00 -3.112837e-01
    outer loop
      vertex  1.538759e+01  1.061915e+01  2.447055e+01
      vertex  1.500000e+01 -1.006738e+01  2.328728e+01
      vertex  1.500000e+01  1.006738e+01  2.328728e+01
    endloop
  endfacet
  facet normal -1.000000e+00  0.000000e+00  0.000000e+00
    outer loop
      vertex  1.100000e+01  2.427051e+00  1.576336e+01
      vertex  1.100000e+01  9.270510e-01  1.685317e+01
      vertex  1.100000e+01  1.100000e+01  2.528728e+01
    endloop
  endfacet
  facet normal -1.000000e+00  0.000000e+00  0.000000e+00
    outer loop
      vertex  1.100000e+01  4.531539e+00  1.141562e+01
      vertex  1.100000e+01  3.146602e+00  9.642982e+00
      vertex  1.100000e+01  9.270510e-01  1.114683e+01
    endloop
  endfacet
  facet normal -1.000000e+00  0.000000e+00  0.000000e+00
    outer loop
      vertex  1.100000e+01  4.531539e+00  1.141562e+01
      vertex  1.100000e+01  9.270510e-01  1.114683e+01
      vertex  1.100000e+01  2.427051e+00  1.223664e+01
    endloop
  endfacet
  facet normal -1.000000e+00  0.000000e+00  0.000000e+00
    outer loop
      vertex  1.100000e+01  4.531539e+00  1.141562e+01
      vertex  1.100000e+01  2.427051e+00  1.223664e+01
      vertex  1.100000e+01  3.000000e+00  1.400000e+01
    endloop
  endfacet
  facet normal -1.000000e+00  0.000000e+00  0.000000e+00
    outer loop
      vertex  1.100000e+01  4.531539e+00  1.141562e+01
      vertex  1.100000e+01  3.000000e+00  1.400000e+01
      vertex  1.100000e+01  2.427051e+00  1.576336e+01
    endloop
  endfacet
  facet normal -1.000000e+00  0.000000e+00  0.000000e+00
    outer loop
      vertex  1.100000e+01  4.531539e+00  1.141562e+01
      vertex  1.100000e+01  2.427051e+00  1.576336e+01
      vertex  1.100000e+01  1.100000e+01  2.528728e+01
    endloop
  endfacet
  facet normal -1.000000e+00  0.000000e+00  0.000000e+00
    outer loop
      vertex  1.100000e+01 -4.531539e+00  1.141562e+01
      vertex  1.100000e+01 -2.427051e+00  1.576336e+01
      vertex  1.100000e+01 -3.000000e+00  1.400000e+01
    endloop
  endfacet
  facet normal -1.000000e+00  0.000000e+00  -0.000000e+00
    outer loop
      vertex  1.100000e+01 -4.531539e+00  1.141562e+01
      vertex  1.100000e+01 -3.000000e+00  1.400000e+01
      vertex  1.100000e+01 -2.427051e+00  1.223664e+01
    endloop
  endfacet
  facet normal -1.000000e+00  0.000000e+00  -0.000000e+00
    outer loop
      vertex  1.100000e+01 -4.531539e+00  1.141562e+01
      vertex  1.100000e+01 -2.427051e+00  1.223664e+01
      vertex  1.100000e+01 -9.270510e-01  1.114683e+01
    endloop
  endfacet
  facet normal -1.000000e+00  -0.000000e+00  0.000000e+00
    outer loop
      vertex  1.100000e+01 -4.531539e+00  1.141562e+01
      vertex  1.100000e+01 -9.270510e-01  1.114683e+01
      vertex  1.100000e+01 -3.146602e+00  9.642982e+00
    endloop
  endfacet
  facet normal -1.000000e+00  -0.000000e+00  0.000000e+00
    outer loop
      vertex  1.100000e+01 -1.100000e+01  2.528728e+01
      vertex  1.100000e+01  1.100000e+01  2.528728e+01
      vertex  1.100000e+01  9.270510e-01  1.685317e+01
    endloop
  endfacet
  facet normal -9.999999e-01  0.000000e+00  0.000000e+00
    outer loop
      vertex  1.100000e+01 -1.100000e+01  2.528728e+01
      vertex  1.100000e+01  9.270510e-01  1.685317e+01
      vertex  1.100000e+01 -9.270510e-01  1.685317e+01
    endloop
  endfacet
  facet normal -1.000000e+00  -0.000000e+00  0.000000e+00
    outer loop
      vertex  1.100000e+01 -1.100000e+01  2.528728e+01
      vertex  1.100000e+01 -9.270510e-01  1.685317e+01
      vertex  1.100000e+01 -2.427051e+00  1.576336e+01
    endloop
  endfacet
  facet normal -1.000000e+00  -0.000000e+00  0.000000e+00
    outer loop
      vertex  1.100000e+01 -1.100000e+01  2.528728e+01
      vertex  1.100000e+01 -2.427051e+00  1.576336e+01
      vertex  1.100000e+01 -4.531539e+00  1.141562e+01
    endloop
  endfacet
  facet normal -1.000000e+00  0.000000e+00  0.000000e+00
    outer loop
      vertex  1.100000e+01  1.124755e+00  8.656862e+00
      vertex  1.100000e+01 -1.124755e+00  8.656862e+00
      vertex  1.100000e+01  3.146602e+00  9.642982e+00
    endloop
  endfacet
  facet normal -1.000000e+00  -0.000000e+00  0.000000e+00
    outer loop
      vertex  1.100000e+01  3.146602e+00  9.642982e+00
      vertex  1.100000e+01 -1.124755e+00  8.656862e+00
      vertex  1.100000e+01  9.270510e-01  1.114683e+01
    endloop
  endfacet
  facet normal -1.000000e+00  0.000000e+00  0.000000e+00
    outer loop
      vertex  1.100000e+01 -1.124755e+00  8.656862e+00
      vertex  1.100000e+01 -3.146602e+00  9.642982e+00
      vertex  1.100000e+01  9.270510e-01  1.114683e+01
    endloop
  endfacet
  facet normal -1.000000e+00  -0.000000e+00  0.000000e+00
    outer loop
      vertex  1.100000e+01  9.270510e-01  1.114683e+01
      vertex  1.100000e+01 -3.146602e+00  9.642982e+00
      vertex  1.100000e+01 -9.270510e-01  1.114683e+01
    endloop
  endfacet
  facet normal  0.000000e+00  7.880107e-01 -6.156615e-01
    outer loop
      vertex  1.100000e+01  4.531539e+00  1.141562e+01
      vertex  1.500000e+01  4.531539e+00  1.141562e+01
      vertex  1.100000e+01  3.146602e+00  9.642982e+00
    endloop
  endfacet
  facet normal  0.000000e+00  7.880107e-01 -6.156615e-01
    outer loop
      vertex  1.100000e+01  3.146602e+00  9.642982e+00
      vertex  1.500000e+01  4.531539e+00  1.141562e+01
      vertex  1.500000e+01  3.146602e+00  9.642982e+00
    endloop
  endfacet
  facet normal  0.000000e+00  4.383710e-01 -8.987941e-01
    outer loop
      vertex  1.100000e+01  3.146602e+00  9.642982e+00
      vertex  1.500000e+01  3.146602e+00  9.642982e+00
      vertex  1.100000e+01  1.124755e+00  8.656862e+00
    endloop
  endfacet
  facet normal  0.000000e+00  4.383710e-01 -8.987941e-01
    outer loop
      vertex  1.100000e+01  1.124755e+00  8.656862e+00
      vertex  1.500000e+01  3.146602e+00  9.642982e+00
      vertex  1.500000e+01  1.124755e+00  8.656862e+00
    endloop
  endfacet
  facet normal  -0.000000e+00  0.000000e+00 -1.000000e+00
    outer loop
      vertex  1.100000e+01  1.124755e+00  8.656862e+00
      vertex  1.500000e+01  1.124755e+00  8.656862e+00
      vertex  1.100000e+01 -1.124755e+00  8.656862e+00
    endloop
  endfacet
  facet normal  0.000000e+00  0.000000e+00 -1.000000e+00
    outer loop
      vertex  1.100000e+01 -1.124755e+00  8.656862e+00
      vertex  1.500000e+01  1.124755e+00  8.656862e+00
      vertex  1.500000e+01 -1.124755e+00  8.656862e+00
    endloop
  endfacet
  facet normal  -0.000000e+00 -4.383710e-01 -8.987941e-01
    outer loop
      vertex  1.100000e+01 -1.124755e+00  8.656862e+00
      vertex  1.500000e+01 -1.124755e+00  8.656862e+00
      vertex  1.100000e+01 -3.146602e+00  9.642982e+00
    endloop
  endfacet
  facet normal  0.000000e+00 -4.383710e-01 -8.987941e-01
    outer loop
      vertex  1.100000e+01 -3.146602e+00  9.642982e+00
      vertex  1.500000e+01 -1.124755e+00  8.656862e+00
      vertex  1.500000e+01 -3.146602e+00  9.642982e+00
    endloop
  endfacet
  facet normal  -0.000000e+00 -7.880107e-01 -6.156615e-01
    outer loop
      vertex  1.100000e+01 -3.146602e+00  9.642982e+00
      vertex  1.500000e+01 -3.146602e+00  9.642982e+00
      vertex  1.100000e+01 -4.531539e+00  1.141562e+01
    endloop
  endfacet
  facet normal  0.000000e+00 -7.880107e-01 -6.156615e-01
    outer loop
      vertex  1.100000e+01 -4.531539e+00  1.141562e+01
      vertex  1.500000e+01 -3.146602e+00  9.642982e+00
      vertex  1.500000e+01 -4.531539e+00  1.141562e+01
    endloop
  endfacet
  facet normal  1.000000e+00  -0.000000e+00  0.000000e+00
    outer loop
      vertex  0.000000e+00  1.100000e+01  2.528728e+01
      vertex  0.000000e+00  9.270510e-01  1.685317e+01
      vertex  0.000000e+00  2.427051e+00  1.576336e+01
    endloop
  endfacet
  facet normal  1.000000e+00  0.000000e+00  0.000000e+00
    outer loop
      vertex  0.000000e+00  4.531539e+00  1.141562e+01
      vertex  0.000000e+00  1.100000e+01  2.528728e+01
      vertex  0.000000e+00  2.427051e+00  1.576336e+01
    endloop
  endfacet
  facet normal  1.000000e+00  0.000000e+00  0.000000e+00
    outer loop
      vertex  0.000000e+00  4.531539e+00  1.141562e+01
      vertex  0.000000e+00  2.427051e+00  1.576336e+01
      vertex  0.000000e+00  3.000000e+00  1.400000e+01
    endloop
  endfacet
  facet normal  1.000000e+00  0.000000e+00  0.000000e+00
    outer loop
      vertex  0.000000e+00  4.531539e+00  1.141562e+01
      vertex  0.000000e+00  3.000000e+00  1.400000e+01
      vertex  0.000000e+00  2.427051e+00  1.223664e+01
    endloop
  endfacet
  facet normal  1.000000e+00  0.000000e+00  0.000000e+00
    outer loop
      vertex  0.000000e+00  4.531539e+00  1.141562e+01
      vertex  0.000000e+00  2.427051e+00  1.223664e+01
      vertex  0.000000e+00  9.270510e-01  1.114683e+01
    endloop
  endfacet
  facet normal  1.000000e+00  -0.000000e+00  0.000000e+00
    outer loop
      vertex  0.000000e+00  4.531539e+00  1.141562e+01
      vertex  0.000000e+00  9.270510e-01  1.114683e+01
      vertex  0.000000e+00  3.146602e+00  9.642982e+00
    endloop
  endfacet
  facet normal  1.000000e+00  0.000000e+00  -0.000000e+00
    outer loop
      vertex  0.000000e+00 -4.531539e+00  1.141562e+01
      vertex  0.000000e+00 -3.146602e+00  9.642982e+00
      vertex  0.000000e+00 -9.270510e-01  1.114683e+01
    endloop
  endfacet
  facet normal  1.000000e+00  0.000000e+00  0.000000e+00
    outer loop
      vertex  0.000000e+00 -4.531539e+00  1.141562e+01
      vertex  0.000000e+00 -9.270510e-01  1.114683e+01
      vertex  0.000000e+00 -2.427051e+00  1.223664e+01
    endloop
  endfacet
  facet normal  1.000000e+00 -3.487927e-16  8.940431e-16
    outer loop
      vertex  0.000000e+00 -4.531539e+00  1.141562e+01
      vertex  0.000000e+00 -2.427051e+00  1.223664e+01
      vertex -1.776357e-15 -3.000000e+00  1.400000e+01
    endloop
  endfacet
  facet normal  1.000000e+00  6.330790e-15 -3.064370e-15
    outer loop
      vertex  0.000000e+00 -4.531539e+00  1.141562e+01
      vertex -1.776357e-15 -3.000000e+00  1.400000e+01
      vertex  0.000000e+00 -2.427051e+00  1.576336e+01
    endloop
  endfacet
  facet normal  1.000000e+00  0.000000e+00  -0.000000e+00
    outer loop
      vertex  0.000000e+00 -1.100000e+01  2.528728e+01
      vertex  0.000000e+00 -4.531539e+00  1.141562e+01
      vertex  0.000000e+00 -2.427051e+00  1.576336e+01
    endloop
  endfacet
  facet normal  1.000000e+00  0.000000e+00  -0.000000e+00
    outer loop
      vertex  0.000000e+00 -1.100000e+01  2.528728e+01
      vertex  0.000000e+00 -2.427051e+00  1.576336e+01
      vertex  0.000000e+00 -9.270510e-01  1.685317e+01
    endloop
  endfacet
  facet normal  9.999999e-01  0.000000e+00  -0.000000e+00
    outer loop
      vertex  0.000000e+00 -1.100000e+01  2.528728e+01
      vertex  0.000000e+00 -9.270510e-01  1.685317e+01
      vertex  0.000000e+00  9.270510e-01  1.685317e+01
    endloop
  endfacet
  facet normal  1.000000e+00  0.000000e+00  -0.000000e+00
    outer loop
      vertex  0.000000e+00 -1.100000e+01  2.528728e+01
      vertex  0.000000e+00  9.270510e-01  1.685317e+01
      vertex  0.000000e+00  1.100000e+01  2.528728e+01
    endloop
  endfacet
  facet normal  1.000000e+00  0.000000e+00  0.000000e+00
    outer loop
      vertex  0.000000e+00  1.124755e+00  8.656862e+00
      vertex  0.000000e+00  3.146602e+00  9.642982e+00
      vertex  0.000000e+00 -1.124755e+00  8.656862e+00
    endloop
  endfacet
  facet normal  1.000000e+00  0.000000e+00  0.000000e+00
    outer loop
      vertex  0.000000e+00 -1.124755e+00  8.656862e+00
      vertex  0.000000e+00  3.146602e+00  9.642982e+00
      vertex  0.000000e+00  9.270510e-01  1.114683e+01
    endloop
  endfacet
  facet normal  1.000000e+00  0.000000e+00  0.000000e+00
    outer loop
      vertex  0.000000e+00 -1.124755e+00  8.656862e+00
      vertex  0.000000e+00  9.270510e-01  1.114683e+01
      vertex  0.000000e+00 -3.146602e+00  9.642982e+00
    endloop
  endfacet
  facet normal  1.000000e+00  0.000000e+00  0.000000e+00
    outer loop
      vertex  0.000000e+00 -3.146602e+00  9.642982e+00
      vertex  0.000000e+00  9.270510e-01  1.114683e+01
      vertex  0.000000e+00 -9.270510e-01  1.114683e+01
    endloop
  endfacet
  facet normal  0.000000e+00 -7.880107e-01 -6.156615e-01
    outer loop
      vertex  0.000000e+00 -4.531539e+00  1.141562e+01
      vertex -4.000000e+00 -4.531539e+00  1.141562e+01
      vertex  0.000000e+00 -3.146602e+00  9.642982e+00
    endloop
  endfacet
  facet normal  -0.000000e+00 -7.880107e-01 -6.156615e-01
    outer loop
      vertex  0.000000e+00 -3.146602e+00  9.642982e+00
      vertex -4.000000e+00 -4.531539e+00  1.141562e+01
      vertex -4.000000e+00 -3.146602e+00  9.642982e+00
    endloop
  endfacet
  facet normal  0.000000e+00 -4.383710e-01 -8.987941e-01
    outer loop
      vertex  0.000000e+00 -3.146602e+00  9.642982e+00
      vertex -4.000000e+00 -3.146602e+00  9.642982e+00
      vertex  0.000000e+00 -1.124755e+00  8.656862e+00
    endloop
  endfacet
  facet normal  -0.000000e+00 -4.383710e-01 -8.987941e-01
    outer loop
      vertex  0.000000e+00 -1.124755e+00  8.656862e+00
      vertex -4.000000e+00 -3.146602e+00  9.642982e+00
      vertex -4.000000e+00 -1.124755e+00  8.656862e+00
    endloop
  endfacet
  facet normal  0.000000e+00  0.000000e+00 -1.000000e+00
    outer loop
      vertex  0.000000e+00 -1.124755e+00  8.656862e+00
      vertex -4.000000e+00 -1.124755e+00  8.656862e+00
      vertex  0.000000e+00  1.124755e+00  8.656862e+00
    endloop
  endfacet
  facet normal  -0.000000e+00  0.000000e+00 -1.000000e+00
    outer loop
      vertex  0.000000e+00  1.124755e+00  8.656862e+00
      vertex -4.000000e+00 -1.124755e+00  8.656862e+00
      vertex -4.000000e+00  1.124755e+00  8.656862e+00
    endloop
  endfacet
  facet normal  0.000000e+00  4.383710e-01 -8.987941e-01
    outer loop
      vertex  0.000000e+00  1.124755e+00  8.656862e+00
      vertex -4.000000e+00  1.124755e+00  8.656862e+00
      vertex  0.000000e+00  3.146602e+00  9.642982e+00
    endloop
  endfacet
  facet normal  0.000000e+00  4.383710e-01 -8.987941e-01
    outer loop
      vertex  0.000000e+00  3.146602e+00  9.642982e+00
      vertex -4.000000e+00  1.124755e+00  8.656862e+00
      vertex -4.000000e+00  3.146602e+00  9.642982e+00
    endloop
  endfacet
  facet normal  0.000000e+00  7.880107e-01 -6.156615e-01
    outer loop
      vertex  0.000000e+00  3.146602e+00  9.642982e+00
      vertex -4.000000e+00  3.146602e+00  9.642982e+00
      vertex  0.000000e+00  4.531539e+00  1.141562e+01
    endloop
  endfacet
  facet normal  0.000000e+00  7.880107e-01 -6.156615e-01
    outer loop
      vertex  0.000000e+00  4.531539e+00  1.141562e+01
      vertex -4.000000e+00  3.146602e+00  9.642982e+00
      vertex -4.000000e+00  4.531539e+00  1.141562e+01
    endloop
  endfacet
  facet normal  0.000000e+00  5.877854e-01 -8.090169e-01
    outer loop
      vertex  1.100000e+01 -9.270510e-01  1.685317e+01
      vertex  1.500000e+01 -2.427051e+00  1.576336e+01
      vertex  1.100000e+01 -2.427051e+00  1.576336e+01
    endloop
  endfacet
  facet normal  0.000000e+00  9.510565e-01 -3.090169e-01
    outer loop
      vertex  1.100000e+01 -2.427051e+00  1.576336e+01
      vertex  1.500000e+01 -2.427051e+00  1.576336e+01
      vertex  1.500000e+01 -3.000000e+00  1.400000e+01
    endloop
  endfacet
  facet normal  0.000000e+00  9.510565e-01 -3.090169e-01
    outer loop
      vertex  1.100000e+01 -2.427051e+00  1.576336e+01
      vertex  1.500000e+01 -3.000000e+00  1.400000e+01
      vertex  1.100000e+01 -3.000000e+00  1.400000e+01
    endloop
  endfacet
  facet normal  0.000000e+00  5.877854e-01 -8.090169e-01
    outer loop
      vertex  1.500000e+01 -2.427051e+00  1.576336e+01
      vertex  1.100000e+01 -9.270510e-01  1.685317e+01
      vertex  1.500000e+01 -9.270510e-01  1.685317e+01
    endloop
  endfacet
  facet normal  0.000000e+00  0.000000e+00 -1.000000e+00
    outer loop
      vertex  1.500000e+01 -9.270510e-01  1.685317e+01
      vertex  1.100000e+01 -9.270510e-01  1.685317e+01
      vertex  1.100000e+01  9.270510e-01  1.685317e+01
    endloop
  endfacet
  facet normal  0.000000e+00  0.000000e+00 -1.000000e+00
    outer loop
      vertex  1.500000e+01 -9.270510e-01  1.685317e+01
      vertex  1.100000e+01  9.270510e-01  1.685317e+01
      vertex  1.500000e+01  9.270510e-01  1.685317e+01
    endloop
  endfacet
  facet normal  -0.000000e+00 -5.877854e-01 -8.090169e-01
    outer loop
      vertex  1.500000e+01  9.270510e-01  1.685317e+01
      vertex  1.100000e+01  9.270510e-01  1.685317e+01
      vertex  1.100000e+01  2.427051e+00  1.576336e+01
    endloop
  endfacet
  facet normal  0.000000e+00 -5.877854e-01 -8.090169e-01
    outer loop
      vertex  1.500000e+01  9.270510e-01  1.685317e+01
      vertex  1.100000e+01  2.427051e+00  1.576336e+01
      vertex  1.500000e+01  2.427051e+00  1.576336e+01
    endloop
  endfacet
  facet normal  -0.000000e+00 -9.510565e-01 -3.090169e-01
    outer loop
      vertex  1.500000e+01  2.427051e+00  1.576336e+01
      vertex  1.100000e+01  2.427051e+00  1.576336e+01
      vertex  1.100000e+01  3.000000e+00  1.400000e+01
    endloop
  endfacet
  facet normal  0.000000e+00 -9.510565e-01 -3.090169e-01
    outer loop
      vertex  1.500000e+01  2.427051e+00  1.576336e+01
      vertex  1.100000e+01  3.000000e+00  1.400000e+01
      vertex  1.500000e+01  3.000000e+00  1.400000e+01
    endloop
  endfacet
  facet normal  0.000000e+00  5.877854e-01 -8.090169e-01
    outer loop
      vertex -4.000000e+00 -9.270510e-01  1.685317e+01
      vertex  0.000000e+00 -2.427051e+00  1.576336e+01
      vertex -4.000000e+00 -2.427051e+00  1.576336e+01
    endloop
  endfacet
  facet normal  0.000000e+00  9.510565e-01 -3.090169e-01
    outer loop
      vertex -4.000000e+00 -2.427051e+00  1.576336e+01
      vertex  0.000000e+00 -2.427051e+00  1.576336e+01
      vertex -1.776357e-15 -3.000000e+00  1.400000e+01
    endloop
  endfacet
  facet normal  0.000000e+00  9.510565e-01 -3.090169e-01
    outer loop
      vertex -4.000000e+00 -2.427051e+00  1.576336e+01
      vertex -1.776357e-15 -3.000000e+00  1.400000e+01
      vertex -4.000000e+00 -3.000000e+00  1.400000e+01
    endloop
  endfacet
  facet normal  0.000000e+00  5.877854e-01 -8.090169e-01
    outer loop
      vertex  0.000000e+00 -2.427051e+00  1.576336e+01
      vertex -4.000000e+00 -9.270510e-01  1.685317e+01
      vertex  0.000000e+00 -9.270510e-01  1.685317e+01
    endloop
  endfacet
  facet normal  0.000000e+00  0.000000e+00 -1.000000e+00
    outer loop
      vertex  0.000000e+00 -9.270510e-01  1.685317e+01
      vertex -4.000000e+00 -9.270510e-01  1.685317e+01
      vertex -4.000000e+00  9.270510e-01  1.685317e+01
    endloop
  endfacet
  facet normal  0.000000e+00  0.000000e+00 -1.000000e+00
    outer loop
      vertex  0.000000e+00 -9.270510e-01  1.685317e+01
      vertex -4.000000e+00  9.270510e-01  1.685317e+01
      vertex  0.000000e+00  9.270510e-01  1.685317e+01
    endloop
  endfacet
  facet normal  -0.000000e+00 -5.877854e-01 -8.090169e-01
    outer loop
      vertex  0.000000e+00  9.270510e-01  1.685317e+01
      vertex -4.000000e+00  9.270510e-01  1.685317e+01
      vertex -4.000000e+00  2.427051e+00  1.576336e+01
    endloop
  endfacet
  facet normal  0.000000e+00 -5.877854e-01 -8.090169e-01
    outer loop
      vertex  0.000000e+00  9.270510e-01  1.685317e+01
      vertex -4.000000e+00  2.427051e+00  1.576336e+01
      vertex  0.000000e+00  2.427051e+00  1.576336e+01
    endloop
  endfacet
  facet normal  -0.000000e+00 -9.510565e-01 -3.090169e-01
    outer loop
      vertex  0.000000e+00  2.427051e+00  1.576336e+01
      vertex -4.000000e+00  2.427051e+00  1.576336e+01
      vertex -4.000000e+00  3.000000e+00  1.400000e+01
    endloop
  endfacet
  facet normal  0.000000e+00 -9.510565e-01 -3.090169e-01
    outer loop
      vertex  0.000000e+00  2.427051e+00  1.576336e+01
      vertex -4.000000e+00  3.000000e+00  1.400000e+01
      vertex  0.000000e+00  3.000000e+00  1.400000e+01
    endloop
  endfacet
  facet normal  0.000000e+00 -5.877850e-01  8.090171e-01
    outer loop
      vertex  1.100000e+01  9.270510e-01  1.114683e+01
      vertex  1.500000e+01  2.427051e+00  1.223664e+01
      vertex  1.100000e+01  2.427051e+00  1.223664e+01
    endloop
  endfacet
  facet normal  0.000000e+00 -9.510565e-01  3.090169e-01
    outer loop
      vertex  1.100000e+01  2.427051e+00  1.223664e+01
      vertex  1.500000e+01  2.427051e+00  1.223664e+01
      vertex  1.500000e+01  3.000000e+00  1.400000e+01
    endloop
  endfacet
  facet normal  0.000000e+00 -9.510565e-01  3.090169e-01
    outer loop
      vertex  1.100000e+01  2.427051e+00  1.223664e+01
      vertex  1.500000e+01  3.000000e+00  1.400000e+01
      vertex  1.100000e+01  3.000000e+00  1.400000e+01
    endloop
  endfacet
  facet normal  0.000000e+00 -5.877850e-01  8.090171e-01
    outer loop
      vertex  1.500000e+01  2.427051e+00  1.223664e+01
      vertex  1.100000e+01  9.270510e-01  1.114683e+01
      vertex  1.500000e+01  9.270510e-01  1.114683e+01
    endloop
  endfacet
  facet normal  0.000000e+00  0.000000e+00  1.000000e+00
    outer loop
      vertex  1.500000e+01  9.270510e-01  1.114683e+01
      vertex  1.100000e+01  9.270510e-01  1.114683e+01
      vertex  1.100000e+01 -9.270510e-01  1.114683e+01
    endloop
  endfacet
  facet normal  0.000000e+00  0.000000e+00  1.000000e+00
    outer loop
      vertex  1.500000e+01  9.270510e-01  1.114683e+01
      vertex  1.100000e+01 -9.270510e-01  1.114683e+01
      vertex  1.500000e+01 -9.270510e-01  1.114683e+01
    endloop
  endfacet
  facet normal  0.000000e+00  5.877850e-01  8.090171e-01
    outer loop
      vertex  1.500000e+01 -9.270510e-01  1.114683e+01
      vertex  1.100000e+01 -9.270510e-01  1.114683e+01
      vertex  1.100000e+01 -2.427051e+00  1.223664e+01
    endloop
  endfacet
  facet normal  -0.000000e+00  5.877850e-01  8.090171e-01
    outer loop
      vertex  1.500000e+01 -9.270510e-01  1.114683e+01
      vertex  1.100000e+01 -2.427051e+00  1.223664e+01
      vertex  1.500000e+01 -2.427051e+00  1.223664e+01
    endloop
  endfacet
  facet normal  0.000000e+00  9.510565e-01  3.090169e-01
    outer loop
      vertex  1.500000e+01 -2.427051e+00  1.223664e+01
      vertex  1.100000e+01 -2.427051e+00  1.223664e+01
      vertex  1.100000e+01 -3.000000e+00  1.400000e+01
    endloop
  endfacet
  facet normal  -0.000000e+00  9.510565e-01  3.090169e-01
    outer loop
      vertex  1.500000e+01 -2.427051e+00  1.223664e+01
      vertex  1.100000e+01 -3.000000e+00  1.400000e+01
      vertex  1.500000e+01 -3.000000e+00  1.400000e+01
    endloop
  endfacet
  facet normal  0.000000e+00 -5.877850e-01  8.090171e-01
    outer loop
      vertex -4.000000e+00  9.270510e-01  1.114683e+01
      vertex  0.000000e+00  2.427051e+00  1.223664e+01
      vertex -4.000000e+00  2.427051e+00  1.223664e+01
    endloop
  endfacet
  facet normal  0.000000e+00 -9.510565e-01  3.090169e-01
    outer loop
      vertex -4.000000e+00  2.427051e+00  1.223664e+01
      vertex  0.000000e+00  2.427051e+00  1.223664e+01
      vertex  0.000000e+00  3.000000e+00  1.400000e+01
    endloop
  endfacet
  facet normal  0.000000e+00 -9.510565e-01  3.090169e-01
    outer loop
      vertex -4.000000e+00  2.427051e+00  1.223664e+01
      vertex  0.000000e+00  3.000000e+00  1.400000e+01
      vertex -4.000000e+00  3.000000e+00  1.400000e+01
    endloop
  endfacet
  facet normal  0.000000e+00 -5.877850e-01  8.090171e-01
    outer loop
      vertex  0.000000e+00  2.427051e+00  1.223664e+01
      vertex -4.000000e+00  9.270510e-01  1.114683e+01
      vertex  0.000000e+00  9.270510e-01  1.114683e+01
    endloop
  endfacet
  facet normal  0.000000e+00  0.000000e+00  1.000000e+00
    outer loop
      vertex  0.000000e+00  9.270510e-01  1.114683e+01
      vertex -4.000000e+00  9.270510e-01  1.114683e+01
      vertex -4.000000e+00 -9.270510e-01  1.114683e+01
    endloop
  endfacet
  facet normal  0.000000e+00  0.000000e+00  1.000000e+00
    outer loop
      vertex  0.000000e+00  9.270510e-01  1.114683e+01
      vertex -4.000000e+00 -9.270510e-01  1.114683e+01
      vertex  0.000000e+00 -9.270510e-01  1.114683e+01
    endloop
  endfacet
  facet normal  0.000000e+00  5.877850e-01  8.090171e-01
    outer loop
      vertex  0.000000e+00 -9.270510e-01  1.114683e+01
      vertex -4.000000e+00 -9.270510e-01  1.114683e+01
      vertex -4.000000e+00 -2.427051e+00  1.223664e+01
    endloop
  endfacet
  facet normal  -0.000000e+00  5.877850e-01  8.090171e-01
    outer loop
      vertex  0.000000e+00 -9.270510e-01  1.114683e+01
      vertex -4.000000e+00 -2.427051e+00  1.223664e+01
      vertex  0.000000e+00 -2.427051e+00  1.223664e+01
    endloop
  endfacet
  facet normal  0.000000e+00  9.510565e-01  3.090169e-01
    outer loop
      vertex  0.000000e+00 -2.427051e+00  1.223664e+01
      vertex -4.000000e+00 -2.427051e+00  1.223664e+01
      vertex -4.000000e+00 -3.000000e+00  1.400000e+01
    endloop
  endfacet
  facet normal  -0.000000e+00  9.510565e-01  3.090169e-01
    outer loop
      vertex  0.000000e+00 -2.427051e+00  1.223664e+01
      vertex -4.000000e+00 -3.000000e+00  1.400000e+01
      vertex -1.776357e-15 -3.000000e+00  1.400000e+01
    endloop
  endfacet
endsolid CATIA STL
